<svg xmlns="http://www.w3.org/2000/svg" width="185.051" height="52.28" viewBox="0 0 185.051 52.28">
  <g id="golden_loaf_logo" transform="translate(-50.575 -9.539)">
    <g id="Group_7208" data-name="Group 7208" transform="translate(50.575 10.195)">
      <g id="Group_7207" data-name="Group 7207">
        <g id="Group_7206" data-name="Group 7206">
          <g id="Group_7205" data-name="Group 7205">
            <path id="Path_72687" data-name="Path 72687" d="M89.011,29.688A12.343,12.343,0,1,1,76.669,17.341,12.344,12.344,0,0,1,89.011,29.688" transform="translate(-47.155 -8.254)" fill="#ad6219"/>
            <path id="Path_72688" data-name="Path 72688" d="M76.418,57.572c.86-1.01,1.59-.442,2.716.355S81.8,59.646,83.6,58.993a21.074,21.074,0,0,0,4.141-1.938s-2.065-.669-3.3-1.128c-1.141-.42-.87-.794.072-.834a9.557,9.557,0,0,1,2.9.8,3.533,3.533,0,0,0,3.377-.472,29.421,29.421,0,0,0,3.882-3.3,22.572,22.572,0,0,1-3.012-.182c-1.106-.167-1.016-.838-.037-.872s3.811.541,4.758-.617a32.09,32.09,0,0,0,2.866-4.174s-2.335.423-3.448.471c-.979.045-1.362-.579-.109-.87a22.531,22.531,0,0,0,3.448-.943,3.749,3.749,0,0,0,1.888-2.143,34.585,34.585,0,0,0,1.56-4.357,14.133,14.133,0,0,1-2.619,1.538c-1.179.491-2-.277-.755-.92,1.55-.807,3.375-1.646,3.806-3.146a15.951,15.951,0,0,0,.486-4.78,19.779,19.779,0,0,1-2.514,2.08c-1.149.707-1.467-.179-.362-1.054,1.013-.8,2.426-1.819,2.576-3.7a17.2,17.2,0,0,0-.91-5.3,11.427,11.427,0,0,1-1.739,2.686c-.962,1.066-1.342.145-.582-.944s2.03-2.4,1.538-4.12a18.91,18.91,0,0,0-1.647-3.54,8.02,8.02,0,0,1-.873,2.5c-.6,1.035-1.342.87-.977-.255s1.464-2.956.506-4.573a25.15,25.15,0,0,0-3.023-3.734,9.313,9.313,0,0,1-.534,3.37c-1.415-3.3-3.013-3.665-6.171-3.74.039,2.978.8,4.574,3.45,5.846a5.944,5.944,0,0,1-3.594-.4,26.159,26.159,0,0,0,2.248,3.7c1.106,1.349,3.124,1.158,3.85,1.2,1.15.062,1.636.872.33.872a26.1,26.1,0,0,1-2.763-.181,6.634,6.634,0,0,0,3.741,4.719c1.611.759.618,1.018.071.943a5.944,5.944,0,0,1-2-.672,6.411,6.411,0,0,0,.8,3.43,12.377,12.377,0,0,0,2.325,2.324c.579.471.651,1.159-.476.581a10.133,10.133,0,0,1-2.067-1.49,5.67,5.67,0,0,0-.4,3.122,12.133,12.133,0,0,0,1.562,3.922c.546,1.2.242,1.727-.652.835a6.064,6.064,0,0,1-1.38-2.434c-1.415,2.835-1.572,4.086-.98,6.428.508,2.013-.045,2.761-.582,1.6a7.219,7.219,0,0,1-.578-3.049c-2.485,3.136-2.833,4.524-2.741,6.85s-.894,1.911-1.025.711a12.559,12.559,0,0,1,.141-3.222c-3.067,2.045-4.078,3.091-5.185,5.654-.819,1.9-1.555,1.738-1.416.808a16.2,16.2,0,0,1,1.119-2.974c-2.838.879-6.127,1.327-6.843,6.523Z" transform="translate(-44.315 -9.879)" fill="#ad6219"/>
            <path id="Path_72689" data-name="Path 72689" d="M82.927,51.769A20.467,20.467,0,0,1,66.155,16.5l-6.383-6.44a29.786,29.786,0,0,0-4.222,4.99l2.817,1.611a26.039,26.039,0,0,0-2.546,4.673l-2.929-1.382a29.454,29.454,0,0,0-1.967,6.865l3.228.283a26.446,26.446,0,0,0-.357,5.311l-3.22-.029a29.692,29.692,0,0,0,1.066,7.06l3.052-1.094a26.287,26.287,0,0,0,1.9,4.974L53.643,44.65a29.693,29.693,0,0,0,3.935,5.959l2.31-2.264a26.607,26.607,0,0,0,3.8,3.725L61.57,54.5a29.618,29.618,0,0,0,6.058,3.779l1.158-3.032a26.2,26.2,0,0,0,5.009,1.8l-.912,3.1A29.634,29.634,0,0,0,86.2,60.4c-4.686-2.3-5.851-5.307-3.27-8.629" transform="translate(-50.575 -10.064)" fill="#1a1818"/>
            <path id="Path_72690" data-name="Path 72690" d="M62.694,32.029a.854.854,0,0,0,.478-1.108c-.166-.616-.8-.925-1.66-.691-.753.2-1.4.714-1.176,1.543.054.2.136.352.41.28l.433-.121c.325-.087.356-.115.255-.636l.174-.046L62,32.674l-.177.047c-.11-.236-.129-.25-.468-.159l-.332.089a2.338,2.338,0,0,0-.428.152A4.009,4.009,0,0,1,60.11,31.8a1.676,1.676,0,0,1,1.12-2.259,1.754,1.754,0,0,1,2.185,1.4,4.121,4.121,0,0,1,.126.962c-.165.056-.408.15-.784.293Z" transform="translate(-48.227 -5.238)" fill="#1a1818"/>
            <path id="Path_72691" data-name="Path 72691" d="M64.3,33.042a1.591,1.591,0,0,1-.718,2.191,1.669,1.669,0,0,1-2.36-.711,1.6,1.6,0,0,1,.7-2.223,1.7,1.7,0,0,1,2.376.742m-2.822,1.48c.24.456.794.562,1.616.129.884-.467,1.244-1.053.944-1.623-.242-.461-.87-.544-1.645-.135s-1.226,1.038-.915,1.63" transform="translate(-47.978 -4.587)" fill="#1a1818"/>
            <path id="Path_72692" data-name="Path 72692" d="M63.519,36.443c-.282.229-.356.315-.323.426a1.054,1.054,0,0,0,.2.317.779.779,0,0,0,.462.323,1.565,1.565,0,0,0,.538-.124l.089.159c-.172.1-.633.346-.767.4L62.213,36.08l.126-.1c.281.3.335.311.758-.031l1.339-1.086c.422-.34.425-.393.207-.709l.126-.1.947,1.17-.124.1c-.271-.29-.323-.3-.747.044Z" transform="translate(-47.68 -4.099)" fill="#1a1818"/>
            <path id="Path_72693" data-name="Path 72693" d="M67.054,36.564a2.061,2.061,0,0,1,.809,1.259,1.453,1.453,0,0,1-.338,1.08c-.789.947-1.862.753-2.77,0l-.975-.813.1-.126c.321.227.373.225.721-.19l1.106-1.325c.346-.418.34-.471.09-.718l.1-.124Zm-1.931,1.6c-.3.355-.326.47-.049.7a1.221,1.221,0,0,0,1.8-.333c.691-.825.483-1.436-.064-1.894a.756.756,0,0,0-.241-.155c-.037,0-.1.074-.192.177Z" transform="translate(-47.291 -3.712)" fill="#1a1818"/>
            <path id="Path_72694" data-name="Path 72694" d="M67.928,38.2c.257-.477.24-.526-.062-.727l.076-.141,2.025,1.1c-.037.077-.192.41-.327.713l-.165-.069a.935.935,0,0,0,.055-.492c-.032-.114-.161-.219-.421-.361l-.171-.092c-.169-.094-.177-.1-.26.056l-.493.909.322.17c.381.209.406.194.638-.131l.156.086-.521.965-.16-.086c.145-.372.144-.4-.236-.606l-.322-.179-.375.7c-.174.32-.207.422-.14.518a1.232,1.232,0,0,0,.36.239.81.81,0,0,0,.571.139,1.386,1.386,0,0,0,.455-.323l.145.119c-.119.156-.456.559-.559.657l-2.178-1.18.076-.142c.377.171.43.157.688-.318Z" transform="translate(-46.654 -3.281)" fill="#1a1818"/>
            <path id="Path_72695" data-name="Path 72695" d="M71.469,42.367l-.292-.092L70,39.35l-.011,0-.3.994a6.93,6.93,0,0,0-.237.933c-.026.176.075.275.387.385l-.049.154L68.6,41.448l.046-.156c.245.064.38.031.453-.129a7.06,7.06,0,0,0,.33-.9l.293-.949c.094-.306.132-.422.08-.566s-.166-.212-.357-.287l.047-.156.834.26,1.186,2.728.007,0,.263-.845a6.917,6.917,0,0,0,.232-.928c.029-.179-.071-.277-.383-.388l.046-.154,1.189.366-.045.155c-.243-.065-.378-.032-.453.129a6.837,6.837,0,0,0-.331.9Z" transform="translate(-46.093 -3.04)" fill="#1a1818"/>
            <path id="Path_72696" data-name="Path 72696" d="M74.948,41.722c.011.368.039.477.142.517a1.3,1.3,0,0,0,.38.026.775.775,0,0,0,.537-.179,1.585,1.585,0,0,0,.22-.511l.184.029c-.024.2-.1.714-.142.852l-2.393.1-.006-.164c.41-.046.447-.084.427-.624l-.075-1.726c-.021-.542-.062-.578-.447-.589l-.006-.162,1.507-.061,0,.16c-.39.046-.43.085-.407.624Z" transform="translate(-44.807 -2.809)" fill="#1a1818"/>
            <path id="Path_72697" data-name="Path 72697" d="M77.309,38.866a1.589,1.589,0,0,1,1.944,1.245,1.662,1.662,0,0,1-1.276,2.1A1.593,1.593,0,0,1,76,40.981a1.7,1.7,0,0,1,1.309-2.115m.729,3.1c.5-.117.743-.628.529-1.532-.227-.97-.707-1.468-1.335-1.32-.506.121-.743.707-.543,1.558s.7,1.449,1.349,1.294" transform="translate(-44.264 -2.912)" fill="#1a1818"/>
            <path id="Path_72698" data-name="Path 72698" d="M80.768,40.911l.11-.072c.157-.1.157-.161-.01-.321-.129-.124-.32-.325-.467-.461l-.808.368c.006.16.039.386.065.609.04.261.07.306.291.234l.121-.04.065.15-1.031.467-.069-.144c.261-.159.31-.207.281-.692l-.145-2.77.192-.166.689.713c.438.457.888.909,1.272,1.29.357.355.44.345.694.261l.066.149-1.255.571Zm-1.217-.747.666-.3-.757-.79-.015.005Z" transform="translate(-43.497 -3.098)" fill="#1a1818"/>
            <path id="Path_72699" data-name="Path 72699" d="M82.05,38.493l.363-.255c.353-.251.353-.28.181-.613l.149-.1.6.868-.149.1c-.256-.278-.283-.291-.639-.042L82.2,38.7l.432.621c.313.445.367.455.745.225l.09.132-1.254.882-.095-.136c.28-.231.292-.282-.019-.723l-.991-1.416c-.31-.445-.363-.452-.677-.266l-.094-.135,1.9-1.334c.052.066.285.353.5.611l-.141.116a.94.94,0,0,0-.412-.268c-.119-.022-.268.046-.511.217l-.179.125c-.156.11-.162.116-.062.257Z" transform="translate(-43.173 -3.477)" fill="#1a1818"/>
            <path id="Path_72700" data-name="Path 72700" d="M84.105,35.723c-.433-.323-.487-.313-.727-.044l-.127-.095,1.386-1.843c.066.046.376.245.657.423l-.1.155a.936.936,0,0,0-.478-.126c-.115.015-.241.126-.417.366l-.116.156c-.115.151-.121.159.021.265l.82.618.222-.293c.26-.346.247-.371-.039-.651l.107-.145.877.661-.107.145c-.347-.2-.376-.2-.632.145l-.224.29.634.475c.29.22.387.268.489.211a1.12,1.12,0,0,0,.292-.315.831.831,0,0,0,.22-.549,1.445,1.445,0,0,0-.253-.5l.137-.124c.139.144.486.529.568.648L85.832,37.58l-.126-.095c.222-.35.219-.4-.216-.728Z" transform="translate(-42.448 -4.175)" fill="#1a1818"/>
            <path id="Path_72701" data-name="Path 72701" d="M86.553,34.746a1.067,1.067,0,0,0,1.123-.4.5.5,0,0,0-.235-.7c-.3-.156-.536-.067-.858.2l-.086.069a1.082,1.082,0,0,1-1.205.25,1.007,1.007,0,0,1-.358-1.441,1.412,1.412,0,0,1,.275-.38c.057-.059.11-.112.156-.162.17.067.386.14.677.235l-.052.176c-.308-.047-.7-.077-.889.3a.467.467,0,0,0,.22.661c.229.119.472.036.774-.212l.137-.109a1.064,1.064,0,0,1,1.228-.24,1.082,1.082,0,0,1,.38,1.54,1.675,1.675,0,0,1-.306.412,2.2,2.2,0,0,1-.242.214c-.132-.024-.468-.129-.76-.22Z" transform="translate(-42.069 -4.565)" fill="#1a1818"/>
            <path id="Path_72702" data-name="Path 72702" d="M88.264,31.568c.513.164.559.137.727-.286l.151.049-.488,1.541-.151-.047c.1-.422.079-.472-.437-.634L85.9,31.5l-.036.121c-.124.392-.106.536-.046.633a1.039,1.039,0,0,0,.38.315l-.051.176c-.333-.13-.656-.26-.9-.35l.029-.091c.136-.05.159-.094.2-.225l.607-1.927a.31.31,0,0,0-.035-.3l.027-.091c.2.059.584.155.918.234l-.042.176a.94.94,0,0,0-.523.027c-.1.051-.185.2-.275.483l-.06.2Z" transform="translate(-41.951 -5.164)" fill="#1a1818"/>
            <path id="Path_72703" data-name="Path 72703" d="M88.316,30.457a.383.383,0,1,1,.461-.3.373.373,0,0,1-.461.3" transform="translate(-41.268 -5.181)" fill="#1a1818"/>
            <path id="Path_72704" data-name="Path 72704" d="M62.831,23.517l-.036.19c.025.022.067.059.125.1.09.091.182.177.273.262a.934.934,0,0,1,.212.323,1.841,1.841,0,0,1,.07.346,1.675,1.675,0,0,1,.021.226c0-.016-.056.055-.176.209a2.683,2.683,0,0,1,.17.239.436.436,0,0,1-.011.215c0,.022-.03.051-.08.091s-.125.095-.225.176c.01.021.041.071.091.152.04.057.059.095.054.109a.866.866,0,0,1-.1.182.7.7,0,0,1-.8.362,1.739,1.739,0,0,1-.762-.445,2.252,2.252,0,0,1-.586-.785l.015-.069.017,0c.007,0,.014,0,.03,0s.082.067.172.186a2,2,0,0,0,.293.331,1.009,1.009,0,0,0,.455.243.514.514,0,0,0,.169.016c.225-.034.421-.225.581-.569a1.663,1.663,0,0,0,.069-.273c.015-.067.026-.136.035-.2a3.869,3.869,0,0,0-.009-.872.756.756,0,0,0-.358.443c-.052.181-.11.367-.164.552a3.582,3.582,0,0,1-.521-.494l.282-1.384Zm1.054,1.242a.476.476,0,0,1,.055.054,2.3,2.3,0,0,1,.255.4l-.35.428a1.738,1.738,0,0,0,.176.307.313.313,0,0,1-.067.11c-.084.112-.176.221-.277.332-.017-.012-.124-.157-.327-.438.045-.046.106-.11.192-.194a.7.7,0,0,0,.147-.186.632.632,0,0,0-.1-.186,1.128,1.128,0,0,1-.1-.177c0-.009.066-.084.191-.234s.195-.217.207-.212" transform="translate(-47.964 -6.753)" fill="#1a1818"/>
            <path id="Path_72705" data-name="Path 72705" d="M63.488,22.053l-.2.539a.407.407,0,0,1-.161.179.735.735,0,0,1-.391.066l.312.38-.386,1.008L62,23.975l.44-1.16c.006-.017-.04-.044-.131-.08l-.127-.046a.933.933,0,0,1-.268-.145,1.355,1.355,0,0,1-.2-.288c-.047-.109-.095-.216-.147-.323l.4.151.177.095c.111.061.17.092.18.095a.237.237,0,0,0,.147.011.437.437,0,0,0,.281-.3l.069-.181Zm.773,1c.017,0,.036.037.062.1a2.734,2.734,0,0,1,.124.431.159.159,0,0,1,0,.091.644.644,0,0,1-.182.135,3.365,3.365,0,0,1-.315.175c-.051-.007-.069-.007-.054,0a.132.132,0,0,1-.052-.065,3.15,3.15,0,0,1-.176-.418.267.267,0,0,1-.027-.129.347.347,0,0,1,.091-.076.74.74,0,0,0,.092-.045.8.8,0,0,1,.1-.059,1.234,1.234,0,0,1,.332-.14" transform="translate(-47.84 -7.145)" fill="#1a1818"/>
            <path id="Path_72706" data-name="Path 72706" d="M64.033,19.964a.822.822,0,0,1,.186.142.917.917,0,0,1,.2.234.555.555,0,0,1,.07.34.241.241,0,0,0-.012.052L63.3,22.77l-.617-.356.189-.332a8.722,8.722,0,0,1-.658-1.069c-.034-.024-.091-.072-.176-.141-.017-.015-.12-.13-.3-.348a4.305,4.305,0,0,1,1.852-.659.96.96,0,0,1,.317.049.905.905,0,0,1,.124.051m-.845,1.016a.242.242,0,0,0-.231,0,.362.362,0,0,0-.172.129.406.406,0,0,0-.009.2.742.742,0,0,0,.051.207.478.478,0,0,1,.027.076c.012.039.022.06.03.062.045.022.114,0,.216-.08a.648.648,0,0,0,.162-.152.425.425,0,0,0,.012-.225c-.012-.115-.041-.185-.087-.211m.743-.572a.857.857,0,0,0-.422.049.228.228,0,0,0-.1.061.145.145,0,0,0,.022.14.281.281,0,0,0,.087.109.164.164,0,0,0,.132,0,.181.181,0,0,0,.117-.072Z" transform="translate(-47.798 -7.627)" fill="#1a1818"/>
            <path id="Path_72707" data-name="Path 72707" d="M63.581,17.687a1.513,1.513,0,0,1,0,.486.215.215,0,0,1-.04.1.56.56,0,0,1-.262.087c-.115.017-.209.026-.293.031a1.156,1.156,0,0,1-.047-.5.324.324,0,0,1,.017-.131,2.1,2.1,0,0,1,.627-.08m2.979.726-.471.542a.083.083,0,0,1-.085.019c-.072-.036-.187-.079-.343-.136a.472.472,0,0,0,.051.2,1.182,1.182,0,0,1,.076.195.1.1,0,0,1-.01.085l-.9,1.031a.126.126,0,0,1-.13.031.21.21,0,0,1-.109-.051,2.662,2.662,0,0,1-.45-.516c-.16-.239-.219-.395-.17-.466a2.56,2.56,0,0,0,.356.316.1.1,0,0,0,.052.022.269.269,0,0,0,.085-.014l.835-.963a.128.128,0,0,0-.04-.047l-.958-.488a5.413,5.413,0,0,1-.323-.77c.1.05.261.129.473.23.227.12.566.288,1.02.511a.746.746,0,0,0,.227.047c.039,0,.055,0,.051,0a1.6,1.6,0,0,1,.216-.248Z" transform="translate(-47.501 -8.239)" fill="#1a1818"/>
            <path id="Path_72708" data-name="Path 72708" d="M65.719,16.08l.035.823.622.616a1.248,1.248,0,0,1,.116.161c.065.107.15.283.263.529a.14.14,0,0,0,0,.034.146.146,0,0,1-.039.117l-.656.552-.461-.546.519-.435c.009-.01,0-.027-.026-.062a3.064,3.064,0,0,0-.236-.224q-.2-.18-.4-.365a3.55,3.55,0,0,0-.435-.337.332.332,0,0,0-.14-.007c-.085,0-.131,0-.14-.015a.534.534,0,0,1-.032-.161c-.029-.112-.051-.221-.071-.332a1.853,1.853,0,0,1-.032-.38c.011-.011.025-.011.047,0a.725.725,0,0,0,.16.134.379.379,0,0,0,.207.021c.076-.009.155-.021.235-.034a2.662,2.662,0,0,0,.463-.09" transform="translate(-47.085 -8.578)" fill="#1a1818"/>
            <path id="Path_72709" data-name="Path 72709" d="M67.286,16.568a1.646,1.646,0,0,1,.311,1.12l-1.411-1.555a3.606,3.606,0,0,1-.08-.968,13.693,13.693,0,0,1,1.18,1.4" transform="translate(-46.713 -8.795)" fill="#1a1818"/>
            <path id="Path_72710" data-name="Path 72710" d="M72.778,15.543l-3.7,1.316a.588.588,0,0,1-.391-.057.677.677,0,0,1-.335-.28c-.061-.111-.094-.17-.1-.181a1.788,1.788,0,0,1-.077-.506,1.108,1.108,0,0,1,.042-.5.363.363,0,0,1,.041.06c0,.009.014.076.034.2s.029.2.032.209a.635.635,0,0,0,.21.281.315.315,0,0,0,.313.089l1.861-.664a1.187,1.187,0,0,1-.044-.19,2.339,2.339,0,0,1,.347-.817,1.343,1.343,0,0,1,.589-.584.328.328,0,0,1,.353.111,1.023,1.023,0,0,1,.215.351,1.267,1.267,0,0,1-.041.623s.136-.052.4-.14Zm-1.6-2.074a.932.932,0,0,1-.079.2c-.017.026-.06.084-.125.174-.077.111-.13.172-.15.176a.83.83,0,0,1-.312-.076c-.179-.06-.271-.106-.283-.134s.031-.145.126-.318a2.51,2.51,0,0,1,.174-.288c.145.049.25.084.31.107a1.891,1.891,0,0,1,.34.161m.659,1.547a.6.6,0,0,0-.149-.194.267.267,0,0,0-.262-.075.815.815,0,0,0-.212.17c-.115.11-.166.187-.15.234s.059.055.149.081a.334.334,0,0,0,.144.025.674.674,0,0,0,.222-.046.408.408,0,0,0,.258-.195" transform="translate(-46.198 -9.284)" fill="#1a1818"/>
            <path id="Path_72711" data-name="Path 72711" d="M73.835,15.338l-.417.057c-.226.03-.395-.086-.512-.348a4.338,4.338,0,0,0-.18.441l-1,.139-.1-.709,1.146-.154a1.773,1.773,0,0,0,.012-.335.672.672,0,0,1-.027-.248,4.345,4.345,0,0,1,.38-.586l.049.338a1.308,1.308,0,0,1,.012.24c0,.146.006.225.008.232a.258.258,0,0,0,.145.207.393.393,0,0,0,.247.039l.135-.019Zm-.181.709c-.052.092-.1.18-.151.27-.081.144-.137.215-.16.219a2.453,2.453,0,0,1-.526-.219,1.46,1.46,0,0,0-.222.32,1.877,1.877,0,0,1-.551-.226.733.733,0,0,1,.106-.21c.066-.1.125-.2.189-.3a1.523,1.523,0,0,0,.492.221s.081-.112.253-.333Z" transform="translate(-45.338 -9.186)" fill="#1a1818"/>
            <path id="Path_72712" data-name="Path 72712" d="M76.32,14.948l-.437.694-2.659-.07.017-.707.478.015a1.776,1.776,0,0,1,.05-.378,2.274,2.274,0,0,1,.453-.5,1.541,1.541,0,0,1,.571-.353.888.888,0,0,1,.258-.034.967.967,0,0,1,.226.031.977.977,0,0,1,.175.1,1.107,1.107,0,0,1,.45.591,1.081,1.081,0,0,1,.05.165l0,.1a1.132,1.132,0,0,0-.564-.306,2.2,2.2,0,0,0-.388-.041,2.049,2.049,0,0,0-.488.032.486.486,0,0,0-.229.089,3.088,3.088,0,0,0,.43.412.558.558,0,0,0,.18.125Zm-1.086-1.984c0,.046-.077.119-.231.217a1.164,1.164,0,0,1-.26.145,1.121,1.121,0,0,1-.248-.167c-.144-.111-.216-.185-.212-.22s.075-.1.225-.23a1.268,1.268,0,0,1,.248-.19,2.157,2.157,0,0,1,.478.445" transform="translate(-44.942 -9.453)" fill="#1a1818"/>
            <path id="Path_72713" data-name="Path 72713" d="M78.511,15.852l-.457-.1a.56.56,0,0,1-.232-.126l-.04.032a3.1,3.1,0,0,1-.522.587.9.9,0,0,1-.742.293,1.741,1.741,0,0,1-.637-.373,2.017,2.017,0,0,1-.521-.537l.019-.084c0-.006.012-.01.036,0-.015,0,.045.051.175.17a.9.9,0,0,0,.382.214.92.92,0,0,0,.411-.02,3.464,3.464,0,0,0,.552-.21c.342-.155.527-.293.553-.412a.825.825,0,0,0-.109-.382c-.09-.186-.132-.285-.132-.288a1.556,1.556,0,0,1,.241-.277c.145-.154.23-.235.251-.252.069.182.137.363.2.548a.726.726,0,0,0,.376.427.91.91,0,0,0,.167.061l.174.039Z" transform="translate(-44.411 -9.064)" fill="#1a1818"/>
            <path id="Path_72714" data-name="Path 72714" d="M79.985,14.3l-.7.441-.224.848c-.022.057-.049.119-.081.185-.061.107-.172.268-.331.491l-.029.02a.122.122,0,0,1-.117.025l-.805-.293.246-.671.633.23c.014.006.025-.014.042-.056s.035-.139.076-.311.074-.353.115-.537a3.808,3.808,0,0,0,.074-.544c0-.011-.016-.054-.062-.122s-.065-.117-.059-.132a1.407,1.407,0,0,1,.121-.107c.082-.079.169-.156.255-.231a2.281,2.281,0,0,1,.316-.216.048.048,0,0,1,.022.042.752.752,0,0,0-.036.206.372.372,0,0,0,.084.192c.049.062.1.124.147.182a2.57,2.57,0,0,0,.308.36" transform="translate(-43.828 -9.255)" fill="#1a1818"/>
            <path id="Path_72715" data-name="Path 72715" d="M80.268,15.889a1.622,1.622,0,0,1-.814.824l.642-1.994a3.485,3.485,0,0,1,.8-.554,13.905,13.905,0,0,1-.627,1.724" transform="translate(-43.392 -9.044)" fill="#1a1818"/>
            <path id="Path_72716" data-name="Path 72716" d="M83.11,19.161l-.524-.4a.269.269,0,0,1-.107-.171.544.544,0,0,1,.035-.326c.041-.1.08-.2.12-.3a.948.948,0,0,0-.335.117.339.339,0,0,1-.308.04l-.8-.879c.212-.167.352-.271.41-.311a.993.993,0,0,1,.905-.2c.15.025.378.055.679.095a.955.955,0,0,1,.069-.192l.713-.288a.1.1,0,0,1,.014.035c-.059.139-.145.318-.261.534-.134.263-.333.661-.591,1.183a.19.19,0,0,0,0,.134.261.261,0,0,0,.1.131l.2.157.107.081Zm-.333-1.493.255-.526a1.953,1.953,0,0,1-.426.074,1.159,1.159,0,0,0-.293-.017Zm1.193-1.513a3.584,3.584,0,0,1-.448.1.22.22,0,0,1-.122,0,1.823,1.823,0,0,1-.253-.538,1.3,1.3,0,0,0-.211.014.735.735,0,0,1-.18.007.336.336,0,0,1-.056-.075,2.906,2.906,0,0,1-.2-.472c.064-.017.253-.054.567-.11a3.185,3.185,0,0,0,.171.443.279.279,0,0,0,.044.069s.142,0,.436-.006Z" transform="translate(-42.96 -8.815)" fill="#1a1818"/>
            <path id="Path_72717" data-name="Path 72717" d="M83.568,19.4l-.4-.408a.442.442,0,0,0,.089-.167.409.409,0,0,0-.164,0,.152.152,0,0,1-.127-.04l-.4-.4.509-.5c.347.341.516.513.513.522a1.192,1.192,0,0,0,.2-.079.924.924,0,0,1,.155-.132,1.379,1.379,0,0,1,.331-.041.839.839,0,0,1,.335.029l-.1.12a5.794,5.794,0,0,1-.653.37l.226.231Z" transform="translate(-42.618 -8.12)" fill="#1a1818"/>
            <path id="Path_72718" data-name="Path 72718" d="M84.683,20.841l-.333-.422a1.584,1.584,0,0,0,.081-.189l-.211.02-.529-.664c.029-.1.031-.154.012-.177a.173.173,0,0,0-.09-.022.2.2,0,0,1-.095-.02L83.236,19l.554-.437.317.4q.032.037.109-.015a1.414,1.414,0,0,0,.116-.089.211.211,0,0,1,.039-.026c.014,0,.075-.007.186-.022.144-.012.245-.022.3-.024a.95.95,0,0,1,.291.024,3.255,3.255,0,0,1-.752.477c0,.01.1.136.3.378.02.019.036.022.047.009a.383.383,0,0,1,.037-.042.8.8,0,0,0,.061-.075.262.262,0,0,1,.061-.064.121.121,0,0,1,.085-.03c.081-.009.2-.019.348-.027a.8.8,0,0,1,.271.041c-.137.122-.27.241-.4.361-.161.144-.2.265-.127.36l.159.2Z" transform="translate(-42.452 -7.949)" fill="#1a1818"/>
            <path id="Path_72719" data-name="Path 72719" d="M85.033,21.53l-.3-.48a.5.5,0,0,0,.125-.147.536.536,0,0,0-.16-.032.153.153,0,0,1-.119-.066l-.3-.48.6-.378a6.339,6.339,0,0,1,.386.619,1.446,1.446,0,0,0,.215-.037,1,1,0,0,1,.177-.095,1.38,1.38,0,0,1,.337.025.811.811,0,0,1,.323.1l-.127.1a6.113,6.113,0,0,1-.724.229l.172.271Z" transform="translate(-42.193 -7.606)" fill="#1a1818"/>
            <path id="Path_72720" data-name="Path 72720" d="M86.431,22.447a.9.9,0,0,1-.287.11l-.6.051-.432-.883a.453.453,0,0,0,.059-.107c-.029-.009-.074-.025-.139-.047l-.236-.48.638-.315.272.549a.2.2,0,0,1,.057-.012.787.787,0,0,1,.207-.061,1.209,1.209,0,0,1,.727.2l-.04.02s-.06,0-.187.027c-.167.029-.362.074-.579.134-.016,0-.02.016-.016.037s.046.1.1.21.1.195.1.2a.063.063,0,0,0,.05,0,.833.833,0,0,1,.185-.117.275.275,0,0,1,.17-.019c.121.016.219.03.285.046a1.594,1.594,0,0,1,.353.12Z" transform="translate(-42.064 -7.4)" fill="#1a1818"/>
            <path id="Path_72721" data-name="Path 72721" d="M88.257,23.066a1.083,1.083,0,0,1-.295-.052,1.659,1.659,0,0,0-.634-.681c.049-.026.121-.006.215.051.067.041.136.084.2.126-.01-.072-.017-.187-.027-.336a.083.083,0,0,1,.045-.077.637.637,0,0,1,.461.016.541.541,0,0,1,.346.3.281.281,0,0,1,.014.14c-.008.072-.031.119-.076.135l-.268-.049a1.745,1.745,0,0,0,.044-.272.661.661,0,0,0-.2-.175c-.059.077-.052.23.012.463Z" transform="translate(-41.434 -7.08)" fill="#1a1818"/>
            <path id="Path_72722" data-name="Path 72722" d="M86.463,24.862l-.152-.465a2.49,2.49,0,0,1-.507-.1,2.933,2.933,0,0,1-.547-.268.683.683,0,0,1-.308-.377,1.735,1.735,0,0,1-.061-.407v-.287a2.809,2.809,0,0,1,.052-.382c.022-.1.049-.159.086-.17l.06-.024a.108.108,0,0,1,.037.052c.006.014.015.107.037.285s.037.272.04.278a1.033,1.033,0,0,0,.1.222,2.708,2.708,0,0,0,.247.3,2.253,2.253,0,0,0,.613.466,5.58,5.58,0,0,1-.077-.611.564.564,0,0,1,.05-.171.283.283,0,0,1,.1-.145.6.6,0,0,1,.132-.071,1.358,1.358,0,0,1,.509-.032c.061,0,.142.007.236.017.067.012.161.027.282.044a.885.885,0,0,1,.237.086.566.566,0,0,1,.195.136.393.393,0,0,1,.055.112.21.21,0,0,1,.015.144,1.028,1.028,0,0,1-.473.542,3.824,3.824,0,0,1-.4.241l.121.366Zm.421-1.091.155-.134a.478.478,0,0,0,.132-.2.127.127,0,0,0,.006-.082.261.261,0,0,0-.037-.049.537.537,0,0,0-.189-.085.1.1,0,0,0-.051,0c-.019.009-.026.012-.025.006a.383.383,0,0,0-.074.129.624.624,0,0,0-.019.17.475.475,0,0,0,.031.13.294.294,0,0,0,.07.115" transform="translate(-42.041 -7)" fill="#1a1818"/>
            <path id="Path_72723" data-name="Path 72723" d="M87.222,26.229a.945.945,0,0,1-.422-.1c-.132-.06-.266-.112-.4-.169a4.864,4.864,0,0,0,.263-1.119.158.158,0,0,0-.086-.065c-.069-.022-.14-.044-.207-.061-.131-.042-.2-.086-.207-.129l-.072-.413.7-.121.081.478a.432.432,0,0,0,.176.056c.065.017.161.042.29.08a1.1,1.1,0,0,1,.576.366,1.212,1.212,0,0,1,.356.569c.014.087,0,.147-.059.179-.079.03-.147.061-.222.092s-.177.087-.318.156a1.535,1.535,0,0,1-.447.2m.067-.674a1.259,1.259,0,0,0,.283-.179.491.491,0,0,0-.166-.313Z" transform="translate(-41.741 -6.584)" fill="#1a1818"/>
            <path id="Path_72724" data-name="Path 72724" d="M74.74,24.347s2.919-.129,2.919-2.687c0-2.4-1.958-2.833-2.865-4.836-.9,2-2.861,2.441-2.861,4.836,0,2.559,2.806,2.687,2.806,2.687" transform="translate(-45.263 -8.383)" fill="#ffda00"/>
            <path id="Path_72725" data-name="Path 72725" d="M74.832,25.033h-.021a3.212,3.212,0,0,1-3.248-3.151,4.355,4.355,0,0,1,1.593-3.277,6.169,6.169,0,0,0,1.31-1.749l.42-.933.422.933A6.177,6.177,0,0,0,76.619,18.6a4.359,4.359,0,0,1,1.595,3.279c0,2.374-2.2,3.1-3.359,3.151Zm.055-7.044a9.06,9.06,0,0,1-1.066,1.256,3.468,3.468,0,0,0-1.334,2.637c0,2.01,2.093,2.209,2.345,2.226.256-.017,2.457-.225,2.457-2.226a3.472,3.472,0,0,0-1.335-2.639A9.366,9.366,0,0,1,74.887,17.989Z" transform="translate(-45.355 -8.607)" fill="#181710"/>
            <path id="Path_72726" data-name="Path 72726" d="M73.443,28.183a2.459,2.459,0,0,0,1.079-3.515c-1-1.676-3.436-2.515-4.793-3.474l-.027.037c.016,1.665-.594,4.1.212,5.873a2.456,2.456,0,0,0,3.5,1.118Z" transform="translate(-45.869 -7.296)" fill="#ffda00"/>
            <path id="Path_72727" data-name="Path 72727" d="M72.178,29.126h0a2.771,2.771,0,0,1-2.592-1.709,9.075,9.075,0,0,1-.346-4.49c.049-.568.1-1.106.092-1.568l0-.146.35-.5.408.23a15.7,15.7,0,0,0,1.429.845,8.757,8.757,0,0,1,3.5,2.771,2.817,2.817,0,0,1,.347,2.209,3.234,3.234,0,0,1-1.51,1.9l-.01.01-.126.087A3.475,3.475,0,0,1,72.178,29.126Zm-1.947-7.007c-.02.286-.045.582-.072.888a8.442,8.442,0,0,0,.266,4.028A1.834,1.834,0,0,0,72.178,28.2h0a2.537,2.537,0,0,0,1.048-.236l.087-.066a2.323,2.323,0,0,0,1.154-1.377,1.886,1.886,0,0,0-.25-1.5,8.1,8.1,0,0,0-3.144-2.434C70.781,22.433,70.5,22.275,70.231,22.119Z" transform="translate(-45.961 -7.417)" fill="#181710"/>
            <path id="Path_72728" data-name="Path 72728" d="M73.557,33.482a2.342,2.342,0,0,0,.835-3.4c-1.043-1.543-3.406-2.208-4.751-3.049l-.021.037c.1,1.583-.348,3.935.518,5.581a2.347,2.347,0,0,0,3.4.874Z" transform="translate(-45.845 -5.845)" fill="#ffda00"/>
            <path id="Path_72729" data-name="Path 72729" d="M72.233,34.485h0a2.641,2.641,0,0,1-2.411-1.5,8.649,8.649,0,0,1-.576-4.274c.016-.544.034-1.056.005-1.493l-.009-.136.3-.541.432.219a15.136,15.136,0,0,0,1.4.726,8.336,8.336,0,0,1,3.488,2.456,2.7,2.7,0,0,1,.456,2.1,3.1,3.1,0,0,1-1.335,1.894l-.007.012-.126.1A3.316,3.316,0,0,1,72.233,34.485Zm-2.045-6.555c0,.26-.011.531-.02.808a8.044,8.044,0,0,0,.47,3.815,1.733,1.733,0,0,0,1.6,1.009,2.387,2.387,0,0,0,1.086-.28l.085-.07a2.2,2.2,0,0,0,1.015-1.362,1.774,1.774,0,0,0-.316-1.391,7.723,7.723,0,0,0-3.121-2.143C70.708,28.186,70.44,28.061,70.187,27.931Z" transform="translate(-45.937 -5.966)" fill="#181710"/>
            <rect id="Rectangle_6891" data-name="Rectangle 6891" width="0.925" height="10.169" transform="translate(29.065 17.832)" fill="#181710"/>
            <path id="Path_72730" data-name="Path 72730" d="M76.069,28.183a2.458,2.458,0,0,1-1.079-3.515c1-1.676,3.433-2.515,4.8-3.474l.022.037c-.011,1.665.6,4.1-.209,5.873a2.46,2.46,0,0,1-3.5,1.118Z" transform="translate(-44.596 -7.296)" fill="#ffda00"/>
            <path id="Path_72731" data-name="Path 72731" d="M77.517,29.137a3.468,3.468,0,0,1-1.536-.371l-.11-.054-.034-.051a3.221,3.221,0,0,1-1.5-1.884,2.809,2.809,0,0,1,.347-2.213,8.738,8.738,0,0,1,3.5-2.775,15.657,15.657,0,0,0,1.424-.842l.4-.283.325.532.025.171c0,.458.044.991.094,1.557a9.082,9.082,0,0,1-.346,4.5A2.775,2.775,0,0,1,77.517,29.137ZM76.5,27.99a2.523,2.523,0,0,0,1.018.222,1.834,1.834,0,0,0,1.753-1.169,8.45,8.45,0,0,0,.268-4.038c-.027-.3-.054-.594-.072-.875-.266.156-.547.31-.837.47a8.082,8.082,0,0,0-3.151,2.436,1.873,1.873,0,0,0-.248,1.5,2.32,2.32,0,0,0,1.154,1.376Z" transform="translate(-44.688 -7.428)" fill="#181710"/>
            <path id="Path_72732" data-name="Path 72732" d="M75.92,33.482a2.342,2.342,0,0,1-.837-3.4c1.044-1.543,3.41-2.208,4.751-3.049l.025.037c-.1,1.583.345,3.935-.523,5.581a2.34,2.34,0,0,1-3.39.874Z" transform="translate(-44.586 -5.845)" fill="#ffda00"/>
            <path id="Path_72733" data-name="Path 72733" d="M77.43,34.489a3.3,3.3,0,0,1-1.621-.442l-.1-.055-.034-.05a3.1,3.1,0,0,1-1.34-1.9,2.7,2.7,0,0,1,.453-2.1,8.353,8.353,0,0,1,3.485-2.455,14.559,14.559,0,0,0,1.4-.727l.38-.239.338.5.014.2c-.029.438-.012.953,0,1.5a8.647,8.647,0,0,1-.579,4.267A2.633,2.633,0,0,1,77.43,34.489ZM76.361,33.3a2.387,2.387,0,0,0,1.069.27,1.729,1.729,0,0,0,1.592-1.008,8.017,8.017,0,0,0,.471-3.807c-.007-.281-.015-.554-.017-.817-.255.127-.524.257-.8.39a7.675,7.675,0,0,0-3.117,2.139,1.772,1.772,0,0,0-.315,1.392,2.187,2.187,0,0,0,1.015,1.361Z" transform="translate(-44.678 -5.97)" fill="#181710"/>
          </g>
        </g>
      </g>
    </g>
    <g id="Group_7222" data-name="Group 7222" transform="translate(123.687 9.539)">
      <g id="Group_7212" data-name="Group 7212" transform="translate(0.007 22.33)">
        <g id="Group_7210" data-name="Group 7210" transform="translate(0 4.686)">
          <g id="Group_7209" data-name="Group 7209">
            <path id="Path_72734" data-name="Path 72734" d="M119.593,41.989a10.042,10.042,0,0,1-4.2.94c-4.433,0-6.264-3.173-6.264-5.777a5.945,5.945,0,0,1,6.2-5.979,9.717,9.717,0,0,1,4.031.974v1.68a8.121,8.121,0,0,0-4.065-1.193,4.427,4.427,0,1,0,.151,8.851,7.312,7.312,0,0,0,2.5-.5V38.6h-2.2V37.153h3.845Z" transform="translate(-109.131 -31.174)" fill="#101213"/>
            <path id="Path_72735" data-name="Path 72735" d="M131.327,37.035c0,3.292-2.519,5.894-6.265,5.894a5.881,5.881,0,1,1,.085-11.755A5.881,5.881,0,0,1,131.327,37.035Zm-10.614.05a4.283,4.283,0,0,0,4.45,4.317,4.71,4.71,0,0,0,3.343-1.361,4.8,4.8,0,0,0,1.141-3.023,4.47,4.47,0,0,0-8.935.067Z" transform="translate(-106.672 -31.174)" fill="#101213"/>
            <path id="Path_72736" data-name="Path 72736" d="M132.139,41.253H137.3v1.495h-6.819V31.3h1.663Z" transform="translate(-103.822 -31.144)" fill="#101213"/>
            <path id="Path_72737" data-name="Path 72737" d="M140.956,31.3a7.064,7.064,0,0,1,4.468,1.175,5.674,5.674,0,0,1,2.2,4.55,5.752,5.752,0,0,1-2.755,4.87,7.64,7.64,0,0,1-4.148.857h-3.628V31.3Zm-2.234,1.46v8.515h2.117a6.427,6.427,0,0,0,3.174-.656,4.307,4.307,0,0,0,1.914-3.677,3.981,3.981,0,0,0-2.385-3.761,6.077,6.077,0,0,0-2.753-.421Z" transform="translate(-102.176 -31.144)" fill="#101213"/>
            <path id="Path_72738" data-name="Path 72738" d="M153.667,32.756h-4.854V36.25H153.5v1.461h-4.685v3.56h5v1.477h-6.649V31.3h6.5Z" transform="translate(-99.67 -31.144)" fill="#101213"/>
            <path id="Path_72739" data-name="Path 72739" d="M164.83,42.748h-1.41l-7.658-8.816v8.816h-1.545V31.3h1.326l7.726,8.883V31.3h1.561Z" transform="translate(-97.917 -31.144)" fill="#101213"/>
            <path id="Path_72740" data-name="Path 72740" d="M170.07,41.253h5.156v1.495h-6.819V31.3h1.663Z" transform="translate(-94.388 -31.144)" fill="#101213"/>
            <path id="Path_72741" data-name="Path 72741" d="M186.178,37.035c0,3.292-2.519,5.894-6.264,5.894A5.881,5.881,0,1,1,180,31.174,5.882,5.882,0,0,1,186.178,37.035Zm-10.613.05a4.282,4.282,0,0,0,4.45,4.317,4.709,4.709,0,0,0,3.342-1.361,4.8,4.8,0,0,0,1.141-3.023,4.469,4.469,0,0,0-8.933.067Z" transform="translate(-93.03 -31.174)" fill="#101213"/>
            <path id="Path_72742" data-name="Path 72742" d="M195,42.762h-1.678l-1.528-3.375h-4.87l-1.445,3.375H183.8l4.921-11.521h1.158Zm-3.879-4.852-1.848-4.148-1.712,4.148Z" transform="translate(-90.561 -31.157)" fill="#101213"/>
            <path id="Path_72743" data-name="Path 72743" d="M199.9,32.773h-4.467v3.174H199.9v1.477h-4.467v5.323h-1.646V31.3H199.9Z" transform="translate(-88.075 -31.144)" fill="#101213"/>
          </g>
        </g>
        <g id="Group_7211" data-name="Group 7211" transform="translate(106.057)">
          <path id="Path_72744" data-name="Path 72744" d="M194.316,28.981a.852.852,0,0,0,.837.979,1.193,1.193,0,0,0,.8-.328v.257a1.3,1.3,0,0,1-.823.286,1.067,1.067,0,0,1-1.065-1.138,1.009,1.009,0,0,1,.98-1.083.906.906,0,0,1,.855.556,1.163,1.163,0,0,1,.09.471Zm1.4-.181a.89.89,0,0,0-.129-.342.628.628,0,0,0-.546-.3.733.733,0,0,0-.7.642Z" transform="translate(-194.064 -27.288)" fill="#101213"/>
          <path id="Path_72745" data-name="Path 72745" d="M197.151,28.382a1.042,1.042,0,0,0-.584-.219.414.414,0,0,0-.461.361c0,.247.3.357.508.428s.6.214.6.633a.634.634,0,0,1-.693.589,1.205,1.205,0,0,1-.642-.2v-.222a1.426,1.426,0,0,0,.666.2c.295,0,.442-.176.442-.357,0-.261-.234-.346-.589-.484-.139-.052-.5-.19-.5-.574a.632.632,0,0,1,.689-.589,1.131,1.131,0,0,1,.571.181Z" transform="translate(-193.613 -27.288)" fill="#101213"/>
          <path id="Path_72746" data-name="Path 72746" d="M197.853,28.13h.6v.191h-.6v1.306c0,.2,0,.242.044.313a.282.282,0,0,0,.28.137.888.888,0,0,0,.386-.1V30.2a1.038,1.038,0,0,1-.442.11.5.5,0,0,1-.447-.257.954.954,0,0,1-.049-.423V28.321h-.574V28.13h.574v-.509l.157-.2h.071Z" transform="translate(-193.321 -27.421)" fill="#101213"/>
          <path id="Path_72747" data-name="Path 72747" d="M198.83,29.79h-.31v-.461h.31Z" transform="translate(-192.956 -26.946)" fill="#101213"/>
        </g>
      </g>
      <g id="Group_7216" data-name="Group 7216" transform="translate(0.007)">
        <g id="Group_7214" data-name="Group 7214" transform="translate(0 4.44)">
          <g id="Group_7213" data-name="Group 7213">
            <path id="Path_72748" data-name="Path 72748" d="M123.7,23.637h-1.43a2.25,2.25,0,0,1-1.727-.758,3.018,3.018,0,0,1-.706-1.322q-.661-3.1-2.592-3.069c-.988.017-1.676.636-2.082,1.852h3.387v2.169a4.913,4.913,0,0,1-1.376,3.51,4.447,4.447,0,0,1-6.6,0,4.93,4.93,0,0,1-1.375-3.528c-.017-.441-.035-1.146-.07-2.152h1.851c0,.3,0,.723.019,1.235s.035.81.035.934a2.932,2.932,0,0,0,.97,2.293,2.692,2.692,0,0,0,1.851.758,2.653,2.653,0,0,0,1.887-.758,3,3,0,0,0,.953-2.328l-.017-.406h-3.756a6.4,6.4,0,0,1,1.164-4.108,4.086,4.086,0,0,1,6.331.263,8.809,8.809,0,0,1,1.058,2.575,1.37,1.37,0,0,0,1.429,1.129h.794Zm-10.035,6.93h-1.693V28.787h1.693Zm2.557,0h-1.693V28.787h1.693Z" transform="translate(-109.131 -12.227)" fill="#101213"/>
            <path id="Path_72749" data-name="Path 72749" d="M128.943,23.514h-1.728a1.725,1.725,0,0,1-1.357-.669,2.571,2.571,0,0,1-.441-.759,2.317,2.317,0,0,1-2.188,1.429h-2.786V21.8h2.082a1.558,1.558,0,0,0,.917-.282,1.057,1.057,0,0,0,.547-.952l-.036-3.491H125.8q0,.978.054,2.75a2,2,0,0,0,.547,1.482,1.278,1.278,0,0,0,.969.493h1.57v1.711Zm-2.981,2.68h-1.71V24.413h1.71Z" transform="translate(-106.318 -12.104)" fill="#101213"/>
            <path id="Path_72750" data-name="Path 72750" d="M139.16,23.689H127.01V21.979h3.35a3.313,3.313,0,0,1-.581-1.887,3.824,3.824,0,0,1,.211-1.3c-.388.159-.74.3-1.04.441-.124-.265-.388-.829-.794-1.711a10.819,10.819,0,0,1,4.533-1.145,5.81,5.81,0,0,1,4.937,2.521A7.9,7.9,0,0,1,139.16,23.689Zm-5.042-3.6a2.24,2.24,0,0,0-.423-1.411,1.131,1.131,0,0,0-.883-.458,1.009,1.009,0,0,0-.828.458,2.347,2.347,0,0,0-.406,1.411,2.221,2.221,0,0,0,.406,1.394,1.1,1.1,0,0,0,.882.476C133.588,21.961,134.118,21.291,134.118,20.092Zm2.909,1.869a4.9,4.9,0,0,0-1.27-2.38,2.755,2.755,0,0,1,.052.546,3.521,3.521,0,0,1-.441,1.834Z" transform="translate(-104.684 -12.28)" fill="#101213"/>
            <path id="Path_72751" data-name="Path 72751" d="M148.523,24.153H138.437l.882-1.711h4.9a3.74,3.74,0,0,0-1.023-2.328,2.071,2.071,0,0,0-1.429-.723V17.717a3.819,3.819,0,0,1,2.892,1.164,6.033,6.033,0,0,1,1.465,3.561h2.4Zm-5.042-7.866h-1.712V14.507h1.712Z" transform="translate(-101.842 -12.744)" fill="#101213"/>
            <path id="Path_72752" data-name="Path 72752" d="M150.5,22.212a2.139,2.139,0,0,1-2.38,2.293h-1.869V22.794h1.2a1.124,1.124,0,0,0,1.2-1.216c0-1.094-.017-2.5-.035-4.232-.018-1.958-.035-3.387-.035-4.251h1.852c.018.812.018,2.328.035,4.568C150.479,19.567,150.5,21.083,150.5,22.212Z" transform="translate(-99.9 -13.095)" fill="#101213"/>
            <path id="Path_72753" data-name="Path 72753" d="M153.427,24.5h-1.852l-.089-11.41h1.852Z" transform="translate(-98.597 -13.095)" fill="#101213"/>
            <path id="Path_72754" data-name="Path 72754" d="M172.094,24.392h-1.923a7.625,7.625,0,0,1-2.927-.6,7.438,7.438,0,0,1-2.875.6h-1.287c-.493.017-.917.017-1.251.017a4.146,4.146,0,0,1-3.862-2.169,8.216,8.216,0,0,1-.918-4.284H158.9a7,7,0,0,0,.6,3.1,2.546,2.546,0,0,0,2.416,1.622h2.134a6.4,6.4,0,0,0,1.181-.141A3.8,3.8,0,0,1,164,19.754a2.875,2.875,0,0,1,.986-2.293,3.3,3.3,0,0,1,2.24-.775,3.457,3.457,0,0,1,2.275.775,2.875,2.875,0,0,1,.988,2.293,3.822,3.822,0,0,1-1.235,2.786,10.082,10.082,0,0,0,1.852.141h.988Zm-3.475-4.708a1.39,1.39,0,1,0-2.751,0,2.51,2.51,0,0,0,.583,1.568q.5.583.793.582t.794-.582A2.514,2.514,0,0,0,168.619,19.684Zm-.563-4.357h-1.711V13.547h1.711Z" transform="translate(-97.213 -12.983)" fill="#101213"/>
            <path id="Path_72755" data-name="Path 72755" d="M177.17,23.514H175.6a1.726,1.726,0,0,1-1.357-.669,2.6,2.6,0,0,1-.441-.759,2.316,2.316,0,0,1-2.186,1.429h-2.787V21.8h2.082a1.558,1.558,0,0,0,.917-.282,1.057,1.057,0,0,0,.547-.952l-.035-3.491h1.851q0,.978.054,2.75a2,2,0,0,0,.547,1.482,1.278,1.278,0,0,0,.969.493h1.411v1.711Zm-4.709,2.68h-1.709V24.413h1.709Zm2.54,0h-1.693V24.413H175Z" transform="translate(-94.283 -12.104)" fill="#101213"/>
            <path id="Path_72756" data-name="Path 72756" d="M179.314,20.862v1.711h-4.073V20.862Z" transform="translate(-92.689 -11.163)" fill="#101213"/>
            <path id="Path_72757" data-name="Path 72757" d="M186.714,24.153h-8.465V22.443h2.875a1.847,1.847,0,0,1-.37-.547,3.114,3.114,0,0,1-.406-1.551,2.553,2.553,0,0,1,.986-2.17,3.112,3.112,0,0,1,2.028-.687,3.049,3.049,0,0,1,2.487,1.146l-.988,1.357a1.681,1.681,0,0,0-1.3-.669,1.25,1.25,0,0,0-1.287,1.322,1.787,1.787,0,0,0,2.028,1.781h1.8Zm-2.663-7.866H182.34V14.507h1.711Z" transform="translate(-91.94 -12.744)" fill="#101213"/>
            <path id="Path_72758" data-name="Path 72758" d="M184.789,25.876a3.741,3.741,0,0,0,3.861-3.809v-4.99h1.869v2.944a1.832,1.832,0,0,0,1.533,1.781h1.958v1.711h-1.834a1.846,1.846,0,0,1-1.64-1.094,4.975,4.975,0,0,1-4.584,4.92C185.687,26.988,185.3,26.495,184.789,25.876Z" transform="translate(-90.314 -12.104)" fill="#101213"/>
            <path id="Path_72759" data-name="Path 72759" d="M196.157,22.212a2.14,2.14,0,0,1-2.381,2.293h-1.869V22.794h1.2a1.124,1.124,0,0,0,1.2-1.216c0-1.094-.018-2.5-.035-4.232-.017-1.958-.035-3.387-.035-4.251h1.852c.016.812.016,2.328.035,4.568C196.139,19.567,196.157,21.083,196.157,22.212Z" transform="translate(-88.544 -13.095)" fill="#101213"/>
            <path id="Path_72760" data-name="Path 72760" d="M199.085,24.5h-1.851l-.089-11.41H199Z" transform="translate(-87.24 -13.095)" fill="#101213"/>
          </g>
        </g>
        <g id="Group_7215" data-name="Group 7215" transform="translate(98.991)">
          <path id="Path_72761" data-name="Path 72761" d="M190.322,12.051h-.413a.389.389,0,0,1-.435-.452h-.6c-.312,0-.467-.2-.467-.584a.8.8,0,0,1,.2-.591.521.521,0,0,1,.388-.169.545.545,0,0,1,.451.235h.009v-.2h.282v1.294c0,.135.057.206.172.206h.413Zm-.864-.706,0-.606a.438.438,0,0,0-.386-.253.3.3,0,0,0-.253.135.635.635,0,0,0-.115.41.52.52,0,0,0,.032.2.2.2,0,0,0,.2.11Zm-.447-1.421h-.3V9.6h.3Zm.5,0h-.3V9.6h.3Z" transform="translate(-188.405 -9.523)" fill="#101213"/>
          <path id="Path_72762" data-name="Path 72762" d="M193.72,11.6v.262h-.41a.428.428,0,0,1-.406-.308.523.523,0,0,1-.521.365.661.661,0,0,1-.327-.069.607.607,0,0,1-.225-.262.481.481,0,0,1-.512.322.708.708,0,0,1-.323-.06.471.471,0,0,1-.172-.169v.181H189.9V11.6h.647V10.96c0-.127,0-.287,0-.476h.283V11.2c0,.3.167.455.483.455a.257.257,0,0,0,.277-.278c0-.086,0-.386-.011-.893h.282c0,.156,0,.393,0,.717a.438.438,0,0,0,.149.345.526.526,0,0,0,.352.11.269.269,0,0,0,.29-.278c0-.077,0-.413-.011-1.011h.282c0,.176,0,.447.009.815a.453.453,0,0,0,.131.316.319.319,0,0,0,.225.1Z" transform="translate(-188.034 -9.333)" fill="#101213"/>
          <path id="Path_72763" data-name="Path 72763" d="M195.95,11.377a.52.52,0,0,1-.546.541.661.661,0,0,1-.327-.069.607.607,0,0,1-.225-.262.48.48,0,0,1-.512.322.718.718,0,0,1-.325-.06.492.492,0,0,1-.176-.172v.185h-.925V11.6h.652V10.96c0-.127,0-.287,0-.476h.283V11.2a.421.421,0,0,0,.483.455.258.258,0,0,0,.278-.278c0-.086,0-.386-.012-.893h.282c0,.156,0,.393.005.717a.433.433,0,0,0,.147.345.526.526,0,0,0,.352.11.27.27,0,0,0,.291-.278c0-.077,0-.413-.012-1.011h.282C195.946,11.013,195.95,11.35,195.95,11.377Z" transform="translate(-187.284 -9.333)" fill="#101213"/>
          <path id="Path_72764" data-name="Path 72764" d="M197.7,12.068h-.623a1.118,1.118,0,0,1-1.019.888c-.025-.054-.066-.135-.12-.253a.847.847,0,0,0,.537-.177.932.932,0,0,0,.311-.457h-.368a.565.565,0,0,1-.458-.215.864.864,0,0,1,.086-1.125.642.642,0,0,1,.437-.165.569.569,0,0,1,.639.647v.6h.578Zm-.837-1.749h-.835l.091-.161h.241a.37.37,0,0,1-.095-.253.355.355,0,0,1,.348-.365.289.289,0,0,1,.237.124l-.072.114a.2.2,0,0,0-.16-.085c-.111,0-.164.077-.164.237a.2.2,0,0,0,.225.229h.184Zm-.024,1.487v-.684c0-.242-.12-.365-.327-.365a.345.345,0,0,0-.28.139.632.632,0,0,0-.135.418c0,.273.152.492.393.492Z" transform="translate(-186.568 -9.539)" fill="#101213"/>
          <path id="Path_72765" data-name="Path 72765" d="M199.018,11.1c0,.478-.25.77-.676.77H197.2v-.262h.594a.806.806,0,0,1-.169-.508.676.676,0,0,1,.684-.77.652.652,0,0,1,.528.246A.8.8,0,0,1,199.018,11.1Zm-.277,0a.616.616,0,0,0-.131-.406.367.367,0,0,0-.283-.131.339.339,0,0,0-.275.131.622.622,0,0,0-.119.406.6.6,0,0,0,.131.406.375.375,0,0,0,.283.131.341.341,0,0,0,.275-.131A.638.638,0,0,0,198.741,11.1Z" transform="translate(-186.218 -9.342)" fill="#101213"/>
        </g>
      </g>
      <g id="Group_7218" data-name="Group 7218" transform="translate(69.874 45.603)">
        <g id="Group_7217" data-name="Group 7217">
          <path id="Path_72766" data-name="Path 72766" d="M168.61,50.138h-3.528l.308-.6H167.1a1.32,1.32,0,0,0-.357-.814.728.728,0,0,0-.5-.252v-.586a1.333,1.333,0,0,1,1.01.407,2.1,2.1,0,0,1,.512,1.245h.839Zm-1.764-2.75h-.6v-.623h.6Z" transform="translate(-165.082 -45.883)" fill="#101213"/>
          <path id="Path_72767" data-name="Path 72767" d="M170.79,50.137h-.611a.6.6,0,0,1-.476-.235.912.912,0,0,1-.154-.265.81.81,0,0,1-.764.5h-.974v-.6h.727a.55.55,0,0,0,.321-.1.369.369,0,0,0,.191-.333l-.012-1.22h.648q0,.341.017.962a.7.7,0,0,0,.192.518.444.444,0,0,0,.338.172h.556v.6Zm-1.141-2.743h-.6V46.77h.6Z" transform="translate(-164.403 -45.882)" fill="#101213"/>
          <path id="Path_72768" data-name="Path 72768" d="M173.016,48.769a1.041,1.041,0,0,1-1.1,1.159h-1.813v-.6h.747a1.252,1.252,0,0,1-.13-.561,1.049,1.049,0,0,1,1.121-1.159,1.14,1.14,0,0,1,.877.37A1.151,1.151,0,0,1,173.016,48.769Zm-.639.006a.689.689,0,0,0-.162-.47.441.441,0,0,0-.337-.154.414.414,0,0,0-.34.154.735.735,0,0,0-.137.47.686.686,0,0,0,.162.468.436.436,0,0,0,.337.154C172.171,49.4,172.376,49.17,172.376,48.775Z" transform="translate(-163.832 -45.673)" fill="#101213"/>
          <path id="Path_72769" data-name="Path 72769" d="M178.406,49.928h-.111a1.078,1.078,0,0,1-.986-.537,1.019,1.019,0,0,1-.98.537,1.143,1.143,0,0,1-.8-.29,1.129,1.129,0,0,1-.358-.678h-.32a.327.327,0,0,0-.315.147.877.877,0,0,0-.044.365l.025,1.793h-.647l-.031-2.139a.711.711,0,0,1,.808-.808h.579a.989.989,0,0,1,1.054-.708,1.134,1.134,0,0,1,.783.283,1.117,1.117,0,0,1,.363.634.893.893,0,0,0,.981.8Zm-1.6-1.153a.688.688,0,0,0-.161-.47.445.445,0,0,0-.345-.154.408.408,0,0,0-.327.154.736.736,0,0,0-.141.47.684.684,0,0,0,.16.468.438.438,0,0,0,.34.154C176.605,49.4,176.809,49.17,176.809,48.775Z" transform="translate(-162.905 -45.673)" fill="#101213"/>
          <path id="Path_72770" data-name="Path 72770" d="M181.648,50.17H177.4v-.6h2.51a1.261,1.261,0,0,0-.415-.789,1.116,1.116,0,0,0-.744-.258,1.679,1.679,0,0,0-.919.29l-.24-.506,1.658-1.671.462.45-.852.833c.957,0,1.516.548,1.678,1.652h1.114Z" transform="translate(-162.02 -45.915)" fill="#101213"/>
          <path id="Path_72771" data-name="Path 72771" d="M183.677,50.138h-.6a.6.6,0,0,1-.476-.235.879.879,0,0,1-.152-.265.811.811,0,0,1-.764.5h-.975v-.6h.728a.544.544,0,0,0,.32-.1.37.37,0,0,0,.192-.333l-.013-1.22h.647q0,.341.017.962a.7.7,0,0,0,.192.518.445.445,0,0,0,.34.172h.547v.6Zm-1.59-2.75h-.6v-.623h.6Zm.894,0h-.6v-.623h.6Z" transform="translate(-161.196 -45.883)" fill="#101213"/>
          <path id="Path_72772" data-name="Path 72772" d="M185.912,48.769a1.042,1.042,0,0,1-1.1,1.159H183v-.6h.745a1.269,1.269,0,0,1-.13-.561,1.051,1.051,0,0,1,1.124-1.159,1.131,1.131,0,0,1,.874.37A1.154,1.154,0,0,1,185.912,48.769Zm-.642.006a.688.688,0,0,0-.16-.47.442.442,0,0,0-.34-.154.418.418,0,0,0-.34.154.734.734,0,0,0-.135.47.684.684,0,0,0,.16.468.438.438,0,0,0,.34.154C185.066,49.4,185.27,49.17,185.27,48.775Z" transform="translate(-160.625 -45.673)" fill="#101213"/>
          <path id="Path_72773" data-name="Path 72773" d="M189.449,49.914h-3.526l.307-.6h1.716a1.308,1.308,0,0,0-.36-.814.72.72,0,0,0-.5-.252v-.586a1.329,1.329,0,0,1,1.01.407,2.1,2.1,0,0,1,.512,1.245h.839Z" transform="translate(-159.899 -45.66)" fill="#101213"/>
          <path id="Path_72774" data-name="Path 72774" d="M192.02,50.138h-3.378v-.6h2.712c-.124-.727-.481-1.091-1.066-1.091a1.28,1.28,0,0,0-.82.21l-.253-.506a1.616,1.616,0,0,1,1.091-.321,1.491,1.491,0,0,1,1.357.753A3.02,3.02,0,0,1,192.02,50.138Zm-1.337-2.75h-.6v-.623h.6Z" transform="translate(-159.222 -45.883)" fill="#101213"/>
          <path id="Path_72775" data-name="Path 72775" d="M197.84,49.957h-.5a.789.789,0,0,1-.6-.265,1.059,1.059,0,0,1-.247-.463c-.155-.721-.455-1.079-.907-1.073-.345.006-.584.222-.727.648h1.184v.758a1.715,1.715,0,0,1-.482,1.227,1.517,1.517,0,0,1-1.151.511,1.534,1.534,0,0,1-1.154-.511,1.728,1.728,0,0,1-.479-1.234c-.008-.154-.012-.4-.025-.752h.647c0,.1,0,.252,0,.431s.012.283.012.327a1.029,1.029,0,0,0,.34.8.94.94,0,0,0,.647.265.922.922,0,0,0,.659-.265,1.051,1.051,0,0,0,.335-.814l-.007-.141h-1.314a2.251,2.251,0,0,1,.407-1.437,1.431,1.431,0,0,1,2.215.092,3.128,3.128,0,0,1,.37.9.478.478,0,0,0,.5.395h.277Zm-3.509,2.423h-.592v-.622h.592Zm.894,0h-.592v-.622h.592Z" transform="translate(-158.201 -45.703)" fill="#101213"/>
          <path id="Path_72776" data-name="Path 72776" d="M199.143,49.771c.005.363-.18.542-.557.542H196.7v-.6h1.528c.16,0,.242-.092.247-.283v-.172h-.529a.955.955,0,0,1-.752-.346,1.045,1.045,0,0,1-.26-.758,1.166,1.166,0,0,1,.42-.919,1.007,1.007,0,0,1,.734-.24q1.041.082,1.054.98Zm-.667-1.1c0-.506,0-.783,0-.833a.41.41,0,0,0-.092-.21.355.355,0,0,0-.31-.166c-.29,0-.475.258-.5.659a.509.509,0,0,0,.475.549Zm-.087-1.985h-.6v-.623h.6Z" transform="translate(-157.218 -46.059)" fill="#101213"/>
        </g>
      </g>
      <g id="Group_7220" data-name="Group 7220" transform="translate(0 45.955)">
        <g id="Group_7219" data-name="Group 7219">
          <path id="Path_72777" data-name="Path 72777" d="M111.147,47.239a1.271,1.271,0,0,0-.9-.4c-.38,0-.611.2-.611.447,0,.327.226.463.96.892a1.679,1.679,0,0,1,.5.43,1.014,1.014,0,0,1,.209.638,1.033,1.033,0,0,1-1.118,1.051,1.734,1.734,0,0,1-1.04-.356v-.7a1.351,1.351,0,0,0,1.04.564.553.553,0,0,0,.6-.508c0-.322-.327-.559-.508-.667a3.181,3.181,0,0,1-.954-.689.894.894,0,0,1-.192-.576,1.033,1.033,0,0,1,1.135-1.023,1.607,1.607,0,0,1,.887.271Z" transform="translate(-109.125 -46.341)" fill="#101213"/>
          <path id="Path_72778" data-name="Path 72778" d="M113.538,46.873H111.9v1.175h1.577v.492H111.9v1.2h1.683v.5h-2.236V46.382h2.187Z" transform="translate(-108.571 -46.331)" fill="#101213"/>
          <path id="Path_72779" data-name="Path 72779" d="M114.688,46.382a1.632,1.632,0,0,1,.662.124,1,1,0,0,1,.6.95.964.964,0,0,1-.644.948,3.206,3.206,0,0,1,.859,1.063c.162.265.258.4.524.768h-.654c-.131-.186-.668-1.028-.792-1.193-.378-.486-.564-.486-.83-.486h-.146v1.678h-.548V46.382Zm-.417.47v1.214h.215a1.973,1.973,0,0,0,.536-.056.584.584,0,0,0,.367-.553.561.561,0,0,0-.293-.514,1.5,1.5,0,0,0-.656-.09Z" transform="translate(-107.981 -46.331)" fill="#101213"/>
          <path id="Path_72780" data-name="Path 72780" d="M117.525,50.257H117.4l-1.661-3.875h.553l1.159,2.706,1.151-2.706h.548Z" transform="translate(-107.48 -46.331)" fill="#101213"/>
          <path id="Path_72781" data-name="Path 72781" d="M119.372,50.234h-.554V46.382h.554Z" transform="translate(-106.714 -46.331)" fill="#101213"/>
          <path id="Path_72782" data-name="Path 72782" d="M123.529,50.234h-.476l-2.575-2.966v2.966h-.519V46.382h.446L123,49.37V46.382h.526Z" transform="translate(-106.43 -46.331)" fill="#101213"/>
          <path id="Path_72783" data-name="Path 72783" d="M126.886,49.979a3.385,3.385,0,0,1-1.412.317,1.946,1.946,0,0,1-2.107-1.944,2,2,0,0,1,2.084-2.01,3.254,3.254,0,0,1,1.356.328v.564a2.732,2.732,0,0,0-1.367-.4,1.489,1.489,0,1,0,.051,2.977,2.467,2.467,0,0,0,.842-.17v-.8h-.74v-.486h1.294Z" transform="translate(-105.583 -46.341)" fill="#101213"/>
          <path id="Path_72784" data-name="Path 72784" d="M131.334,48.569a1.6,1.6,0,0,1-.435,1.3,1.785,1.785,0,0,1-1.215.418,1.67,1.67,0,0,1-1.446-.673,1.972,1.972,0,0,1-.215-1.044V46.382h.553v2.187c0,.508.045.706.244.9a1.12,1.12,0,0,0,.864.322,1.051,1.051,0,0,0,.994-.508,1.546,1.546,0,0,0,.107-.717V46.382h.548Z" transform="translate(-104.425 -46.331)" fill="#101213"/>
          <path id="Path_72785" data-name="Path 72785" d="M134.606,50.239h-.564l-.514-1.135H131.89l-.486,1.135h-.566l1.656-3.875h.39Zm-1.3-1.632-.621-1.4-.577,1.4Z" transform="translate(-103.724 -46.335)" fill="#101213"/>
          <path id="Path_72786" data-name="Path 72786" d="M136.383,46.873H134.75v1.175h1.576v.492H134.75v1.2h1.683v.5H134.2V46.382h2.187Z" transform="translate(-102.889 -46.331)" fill="#101213"/>
          <path id="Path_72787" data-name="Path 72787" d="M139.681,47.239a1.272,1.272,0,0,0-.9-.4c-.38,0-.611.2-.611.447,0,.327.226.463.96.892a1.679,1.679,0,0,1,.5.43,1.015,1.015,0,0,1,.21.638,1.035,1.035,0,0,1-1.119,1.051,1.736,1.736,0,0,1-1.04-.356v-.7a1.351,1.351,0,0,0,1.04.564.555.555,0,0,0,.6-.508c0-.322-.328-.559-.509-.667a3.2,3.2,0,0,1-.954-.689.894.894,0,0,1-.192-.576,1.033,1.033,0,0,1,1.135-1.023,1.6,1.6,0,0,1,.887.271Z" transform="translate(-102.028 -46.341)" fill="#101213"/>
          <path id="Path_72788" data-name="Path 72788" d="M140.444,50.234h-.554V46.382h.554Z" transform="translate(-101.473 -46.331)" fill="#101213"/>
          <path id="Path_72789" data-name="Path 72789" d="M144.6,50.234h-.475l-2.575-2.966v2.966h-.519V46.382h.446l2.6,2.988V46.382h.524Z" transform="translate(-101.19 -46.331)" fill="#101213"/>
          <path id="Path_72790" data-name="Path 72790" d="M147.864,47.251a2.719,2.719,0,0,0-1.334-.385,1.46,1.46,0,0,0-1.525,1.462,1.435,1.435,0,0,0,1.531,1.452,2.514,2.514,0,0,0,1.366-.43v.6a2.844,2.844,0,0,1-1.4.34,1.961,1.961,0,0,1-2.073-1.972,2.013,2.013,0,0,1,2.084-1.983,3.411,3.411,0,0,1,1.35.317Z" transform="translate(-100.344 -46.341)" fill="#101213"/>
          <path id="Path_72791" data-name="Path 72791" d="M149.943,46.873h-1.633v1.175h1.576v.492h-1.576v1.2h1.683v.5h-2.236V46.382h2.187Z" transform="translate(-99.517 -46.331)" fill="#101213"/>
        </g>
      </g>
      <g id="Group_7221" data-name="Group 7221" transform="translate(53.576 45.548)">
        <path id="Path_72792" data-name="Path 72792" d="M152.924,50.326v-3.48l-.894.482v-.717l1.065-.6h.583v4.311Z" transform="translate(-152.03 -46.015)" fill="#101213"/>
        <path id="Path_72793" data-name="Path 72793" d="M154.775,49.386h.026a1.734,1.734,0,0,0,1.064.342c.773,0,1.109-.539,1.14-1.381a1.079,1.079,0,0,1-.988.526,1.283,1.283,0,0,1-1.382-1.376,1.448,1.448,0,0,1,1.515-1.476c1.059,0,1.6.8,1.6,2.117,0,1.686-.868,2.275-1.843,2.275a2.134,2.134,0,0,1-1.135-.28Zm2.092-2.149a.712.712,0,0,0-.7-.544.737.737,0,0,0-.773.8.72.72,0,0,0,.754.773.8.8,0,0,0,.793-.6A1.445,1.445,0,0,0,156.866,47.237Z" transform="translate(-151.382 -46.014)" fill="#101213"/>
        <path id="Path_72794" data-name="Path 72794" d="M158.289,50.307c.475-1.191,1.1-2.567,1.566-3.53h-2.143v-.686h2.928v.489c-.551,1.235-1.071,2.451-1.56,3.726Z" transform="translate(-150.617 -45.996)" fill="#101213"/>
        <path id="Path_72795" data-name="Path 72795" d="M160.746,49.386h.026a1.733,1.733,0,0,0,1.063.342c.774,0,1.11-.539,1.141-1.381a1.079,1.079,0,0,1-.988.526,1.283,1.283,0,0,1-1.382-1.376,1.448,1.448,0,0,1,1.515-1.476c1.059,0,1.6.8,1.6,2.117,0,1.686-.868,2.275-1.843,2.275a2.134,2.134,0,0,1-1.135-.28Zm2.092-2.149a.712.712,0,0,0-.7-.544.737.737,0,0,0-.773.8.72.72,0,0,0,.754.773.8.8,0,0,0,.793-.6A1.447,1.447,0,0,0,162.837,47.237Z" transform="translate(-149.897 -46.014)" fill="#101213"/>
      </g>
    </g>
  </g>
</svg>
