<svg xmlns="http://www.w3.org/2000/svg" width="36.793" height="36.846" viewBox="0 0 36.793 36.846">
  <g id="call" transform="translate(-115.999 -206.875)">
    <g id="Group_6380" data-name="Group 6380" transform="translate(115.999 206.875)">
      <path id="Path_72294" data-name="Path 72294" d="M145.093,249.495a3.625,3.625,0,0,0-2.628-1.205,3.746,3.746,0,0,0-2.66,1.2l-2.458,2.45c-.2-.109-.4-.21-.6-.311-.28-.14-.544-.272-.77-.412a26.71,26.71,0,0,1-6.4-5.832,15.764,15.764,0,0,1-2.1-3.313c.637-.583,1.229-1.19,1.8-1.773.218-.218.436-.443.654-.661a3.568,3.568,0,0,0,0-5.381l-2.123-2.123c-.241-.241-.49-.49-.723-.738-.467-.482-.957-.98-1.462-1.447a3.682,3.682,0,0,0-2.605-1.143,3.809,3.809,0,0,0-2.644,1.143l-.016.016-2.644,2.668a5.69,5.69,0,0,0-1.688,3.616,13.633,13.633,0,0,0,1,5.77,33.483,33.483,0,0,0,5.949,9.923,36.6,36.6,0,0,0,12.186,9.542,18.984,18.984,0,0,0,6.843,2.022c.164.008.335.016.49.016a5.858,5.858,0,0,0,4.487-1.929c.008-.016.023-.023.031-.039a17.606,17.606,0,0,1,1.361-1.408c.334-.319.676-.653,1.011-1a3.878,3.878,0,0,0,1.174-2.691,3.739,3.739,0,0,0-1.2-2.668Zm2.784,8.189c-.008,0-.008.008,0,0-.3.327-.614.622-.949.949a20.446,20.446,0,0,0-1.5,1.555,3.749,3.749,0,0,1-2.924,1.236c-.117,0-.241,0-.358-.008a16.87,16.87,0,0,1-6.066-1.82,34.548,34.548,0,0,1-11.479-8.99,31.575,31.575,0,0,1-5.6-9.324,11.1,11.1,0,0,1-.871-4.868,3.569,3.569,0,0,1,1.073-2.31l2.652-2.652a1.767,1.767,0,0,1,1.182-.552,1.665,1.665,0,0,1,1.135.544l.023.023c.475.443.925.9,1.4,1.392.241.249.49.5.739.755l2.123,2.123a1.484,1.484,0,0,1,0,2.411c-.226.226-.443.451-.669.669-.653.669-1.275,1.291-1.952,1.9-.016.016-.031.024-.039.039a1.587,1.587,0,0,0-.4,1.765l.024.07a17.046,17.046,0,0,0,2.512,4.1l.008.008a28.544,28.544,0,0,0,6.906,6.284,10.51,10.51,0,0,0,.957.521c.28.14.544.272.77.412.031.016.062.039.093.054a1.686,1.686,0,0,0,.77.194,1.663,1.663,0,0,0,1.182-.536l2.66-2.66a1.759,1.759,0,0,1,1.174-.583,1.582,1.582,0,0,1,1.12.568l4.3,4.3a1.537,1.537,0,0,1,.008,2.434Zm0,0" transform="translate(-115.999 -226.67)" fill="#5a5a5a"/>
      <path id="Path_72295" data-name="Path 72295" d="M312.543,277.7a10.009,10.009,0,0,1,8.15,8.15,1.043,1.043,0,0,0,1.034.871,1.432,1.432,0,0,0,.179-.016,1.051,1.051,0,0,0,.863-1.213,12.1,12.1,0,0,0-9.861-9.861,1.056,1.056,0,0,0-1.213.855,1.039,1.039,0,0,0,.848,1.213Zm0,0" transform="translate(-292.657 -268.932)" fill="#5a5a5a"/>
      <path id="Path_72296" data-name="Path 72296" d="M332.2,223.128a19.927,19.927,0,0,0-16.238-16.238,1.048,1.048,0,1,0-.342,2.069,17.8,17.8,0,0,1,14.511,14.511,1.043,1.043,0,0,0,1.034.871,1.348,1.348,0,0,0,.179-.016,1.03,1.03,0,0,0,.856-1.2Zm0,0" transform="translate(-295.426 -206.875)" fill="#5a5a5a"/>
    </g>
  </g>
</svg>
