<svg xmlns="http://www.w3.org/2000/svg" width="25.296" height="25.291" viewBox="0 0 25.296 25.291">
  <path id="call_icon" d="M333.559,292.216a4.5,4.5,0,0,1,.781.338,1.649,1.649,0,0,1,.733,1.394,13.824,13.824,0,0,0,.343,2.907c.1.39.215.775.315,1.164a1.776,1.776,0,0,1-.373,1.613c-.65.833-1.281,1.681-1.91,2.51a13.835,13.835,0,0,0,6.243,6.246l2.089-1.578c.161-.121.322-.242.478-.37a1.659,1.659,0,0,1,1.518-.335c.642.155,1.275.359,1.925.464a20.288,20.288,0,0,0,2.1.191,1.75,1.75,0,0,1,1.632,1,2.027,2.027,0,0,1,.179.81c.018,1.309.012,2.619.007,3.928a1.749,1.749,0,0,1-1.849,1.815,20.419,20.419,0,0,1-19.56-15.094,19.675,19.675,0,0,1-.653-4.015c-.008-.135-.028-.27-.042-.4v-1.079a6.052,6.052,0,0,1,.368-.812,1.767,1.767,0,0,1,1.144-.7Z" transform="translate(-274.311 -339.853) rotate(9)" fill="#ba7824"/>
</svg>
