<svg xmlns="http://www.w3.org/2000/svg" xmlns:xlink="http://www.w3.org/1999/xlink" width="58" height="58" viewBox="0 0 58 58">
  <defs>
    <filter id="Ellipse_392" x="0" y="0" width="58" height="58" filterUnits="userSpaceOnUse">
      <feOffset dy="3" input="SourceAlpha"/>
      <feGaussianBlur stdDeviation="3" result="blur"/>
      <feFlood flood-opacity="0.161"/>
      <feComposite operator="in" in2="blur"/>
      <feComposite in="SourceGraphic"/>
    </filter>
  </defs>
  <g id="Camera" transform="translate(-995.514 -595.514)">
    <g transform="matrix(1, 0, 0, 1, 995.51, 595.51)" filter="url(#Ellipse_392)">
      <circle id="Ellipse_392-2" data-name="Ellipse 392" cx="20" cy="20" r="20" transform="translate(9 6)" fill="#684F40"/>
    </g>
    <g id="Group_2989" data-name="Group 2989" transform="translate(1014.757 612.57)">
      <path id="Path_8426" data-name="Path 8426" d="M1739.855-205.895a2.611,2.611,0,0,0-1.916-.794h-2.371l-.54-1.44a1.976,1.976,0,0,0-.736-.9,1.889,1.889,0,0,0-1.1-.376h-5.42a1.887,1.887,0,0,0-1.1.376,1.969,1.969,0,0,0-.736.9l-.54,1.44h-2.371a2.612,2.612,0,0,0-1.917.794,2.61,2.61,0,0,0-.794,1.916v9.486a2.611,2.611,0,0,0,.794,1.916,2.612,2.612,0,0,0,1.917.794h14.906a2.611,2.611,0,0,0,1.916-.794,2.611,2.611,0,0,0,.794-1.916v-9.486a2.61,2.61,0,0,0-.794-1.916Zm-6.019,10.01a4.57,4.57,0,0,1-3.351,1.392,4.57,4.57,0,0,1-3.351-1.392,4.569,4.569,0,0,1-1.392-3.351,4.57,4.57,0,0,1,1.392-3.351,4.568,4.568,0,0,1,3.351-1.393,4.569,4.569,0,0,1,3.351,1.393,4.566,4.566,0,0,1,1.392,3.351,4.568,4.568,0,0,1-1.392,3.351Zm0,0" transform="translate(-1720.323 209.399)" fill="#f8f8f8"/>
      <path id="Path_8427" data-name="Path 8427" d="M1767.173-165.6a2.935,2.935,0,0,0-2.154.895,2.937,2.937,0,0,0-.895,2.155,2.936,2.936,0,0,0,.895,2.154,2.935,2.935,0,0,0,2.154.895,2.937,2.937,0,0,0,2.155-.895,2.936,2.936,0,0,0,.895-2.154,2.937,2.937,0,0,0-.895-2.155,2.937,2.937,0,0,0-2.155-.895Zm0,0" transform="translate(-1757.01 172.712)" fill="#f8f8f8"/>
    </g>
  </g>
</svg>
