<svg xmlns="http://www.w3.org/2000/svg" width="24.035" height="25.825" viewBox="0 0 24.035 25.825">
  <g id="cart" transform="translate(0.589 0.75)">
    <path id="Rectangle_6640" data-name="Rectangle 6640" d="M0,0H22.535a0,0,0,0,1,0,0V17.528a2.128,2.128,0,0,1-2.128,2.128H2.128A2.128,2.128,0,0,1,0,17.528V0A0,0,0,0,1,0,0Z" transform="translate(0.161 4.669)" fill="none" stroke="#505555" stroke-width="1.5"/>
    <path id="Path_72304" data-name="Path 72304" d="M266.608,413.9l4.193-4.4h15.023l3.561,4.389" transform="translate(-266.608 -409.5)" fill="none" stroke="#505555" stroke-width="1.5"/>
    <path id="Path_72305" data-name="Path 72305" d="M281.977,417.106a4.807,4.807,0,1,1-9.615,0" transform="translate(-265.59 -408.155)" fill="none" stroke="#505555" stroke-width="1.5"/>
  </g>
</svg>
