<svg id="Delete" xmlns="http://www.w3.org/2000/svg" width="21.313" height="21.313" viewBox="0 0 21.313 21.313">
  <rect id="Rectangle_5796" data-name="Rectangle 5796" width="21.313" height="21.313" fill="none"/>
  <g id="Group_3575" data-name="Group 3575" transform="translate(3.557 2.846)">
    <g id="Group_3035" data-name="Group 3035">
      <path id="Path_8429" data-name="Path 8429" d="M1670.964,437.085h-8.546a.6.6,0,0,1-.6-.545l-.988-11.228h-1.246v-1.2h14.224v1.2h-1.266l-.988,11.228A.6.6,0,0,1,1670.964,437.085Zm-8-1.2h7.451l.931-10.578h-9.313Zm6.385-1.731-1.195-.044.259-7.072,1.194.044Zm-5.3,0-.259-7.072,1.194-.044.259,7.072Zm3.247-.022h-1.2v-7.072h1.2Z" transform="translate(-1659.589 -421.825)" fill="#1a1818"/>
      <path id="Path_8430" data-name="Path 8430" d="M1683.019,417.358h-1.2v-1.693h-3.506v1.693h-1.2v-1.893a1,1,0,0,1,1-1h3.9a1,1,0,0,1,1,1Z" transform="translate(-1672.958 -414.469)" fill="#1a1818"/>
    </g>
  </g>
</svg>
