<svg xmlns="http://www.w3.org/2000/svg" width="196.459" height="55.503" viewBox="0 0 196.459 55.503">
  <g id="golden_loaf_logo" transform="translate(-50.575 -9.539)">
    <g id="Group_7208" data-name="Group 7208" transform="translate(50.575 10.235)">
      <g id="Group_7207" data-name="Group 7207">
        <g id="Group_7206" data-name="Group 7206">
          <g id="Group_7205" data-name="Group 7205">
            <path id="Path_72687" data-name="Path 72687" d="M90.533,30.449a13.1,13.1,0,1,1-13.1-13.108,13.1,13.1,0,0,1,13.1,13.108" transform="translate(-46.097 -7.694)" fill="#ad6219"/>
            <path id="Path_72688" data-name="Path 72688" d="M76.46,60.455c.913-1.072,1.688-.469,2.883.377s2.83,1.825,4.737,1.132a22.372,22.372,0,0,0,4.4-2.057s-2.193-.711-3.508-1.2c-1.212-.445-.924-.843.077-.886a10.146,10.146,0,0,1,3.084.848,3.75,3.75,0,0,0,3.585-.5,31.234,31.234,0,0,0,4.122-3.505,23.962,23.962,0,0,1-3.2-.194c-1.175-.178-1.079-.89-.04-.925s4.046.574,5.051-.655a34.068,34.068,0,0,0,3.042-4.432s-2.479.449-3.66.5c-1.039.048-1.446-.615-.115-.924a23.92,23.92,0,0,0,3.66-1,3.98,3.98,0,0,0,2-2.275,36.714,36.714,0,0,0,1.656-4.625,15,15,0,0,1-2.78,1.633c-1.251.521-2.118-.294-.8-.977,1.645-.856,3.583-1.747,4.041-3.339a16.934,16.934,0,0,0,.516-5.075,21,21,0,0,1-2.669,2.209c-1.22.75-1.558-.19-.384-1.119,1.075-.851,2.576-1.932,2.735-3.929a18.262,18.262,0,0,0-.966-5.626,12.131,12.131,0,0,1-1.847,2.852c-1.021,1.132-1.425.154-.618-1s2.156-2.544,1.633-4.373a20.076,20.076,0,0,0-1.749-3.758,8.514,8.514,0,0,1-.927,2.659c-.64,1.1-1.425.924-1.037-.27s1.554-3.138.537-4.855A26.7,26.7,0,0,0,96.71,11.2s.012,2.651-.567,3.578c-1.5-3.508-3.2-3.891-6.552-3.97.041,3.162.848,4.856,3.663,6.207a6.311,6.311,0,0,1-3.815-.424,27.772,27.772,0,0,0,2.386,3.931c1.175,1.432,3.317,1.229,4.087,1.271,1.221.066,1.737.925.35.925a27.706,27.706,0,0,1-2.934-.192,7.043,7.043,0,0,0,3.972,5.01c1.71.806.656,1.08.076,1a6.311,6.311,0,0,1-2.122-.713,6.806,6.806,0,0,0,.851,3.642,13.139,13.139,0,0,0,2.468,2.467c.615.5.691,1.23-.505.616a10.758,10.758,0,0,1-2.194-1.582,6.019,6.019,0,0,0-.426,3.314c.208,1.758,1.082,2.893,1.658,4.164s.257,1.833-.692.887a6.438,6.438,0,0,1-1.465-2.584c-1.5,3.009-1.669,4.338-1.041,6.825.54,2.137-.048,2.931-.618,1.694a7.665,7.665,0,0,1-.614-3.237c-2.638,3.329-3.008,4.8-2.91,7.273s-.949,2.028-1.088.754a13.334,13.334,0,0,1,.15-3.42c-3.256,2.171-4.33,3.281-5.5,6-.87,2.014-1.65,1.845-1.5.858a17.2,17.2,0,0,1,1.188-3.158c-3.013.933-6.505,1.409-7.265,6.925Z" transform="translate(-42.378 -9.822)" fill="#ad6219"/>
            <path id="Path_72689" data-name="Path 72689" d="M84.921,54.34A21.729,21.729,0,0,1,67.116,16.9l-6.777-6.837a31.623,31.623,0,0,0-4.482,5.3l2.991,1.71a27.644,27.644,0,0,0-2.7,4.961l-3.11-1.468a31.271,31.271,0,0,0-2.088,7.289l3.427.3a28.076,28.076,0,0,0-.379,5.638l-3.419-.03a31.522,31.522,0,0,0,1.132,7.5l3.24-1.161a27.907,27.907,0,0,0,2.015,5.28l-3.13,1.405a31.524,31.524,0,0,0,4.177,6.326l2.453-2.4A28.247,28.247,0,0,0,64.5,54.659l-2.248,2.58a31.443,31.443,0,0,0,6.431,4.012l1.229-3.219a27.818,27.818,0,0,0,5.317,1.908l-.968,3.293a31.461,31.461,0,0,0,14.136.268c-4.975-2.437-6.212-5.634-3.472-9.161" transform="translate(-50.575 -10.064)" fill="#fff"/>
            <path id="Path_72703" data-name="Path 72703" d="M88.335,30.5a.407.407,0,1,1,.489-.316.4.4,0,0,1-.489.316" transform="translate(-38.387 -3.67)" fill="#fff"/>
            <g id="Group_7230" data-name="Group 7230" transform="translate(12.516 3.255)">
              <path id="Path_72690" data-name="Path 72690" d="M62.86,32.187a.907.907,0,0,0,.508-1.176c-.176-.654-.844-.982-1.762-.733-.8.217-1.489.758-1.249,1.639.057.209.145.374.435.3l.46-.129c.345-.093.378-.122.27-.675l.184-.049.414,1.511-.188.05c-.117-.251-.137-.265-.5-.168l-.353.094a2.483,2.483,0,0,0-.455.162,4.256,4.256,0,0,1-.512-1.069,1.78,1.78,0,0,1,1.189-2.4,1.862,1.862,0,0,1,2.32,1.49,4.374,4.374,0,0,1,.134,1.021c-.175.06-.433.159-.833.312Z" transform="translate(-60.016 -6.998)" fill="#fff"/>
              <path id="Path_72691" data-name="Path 72691" d="M64.5,33.1a1.689,1.689,0,0,1-.762,2.327,1.771,1.771,0,0,1-2.506-.754,1.693,1.693,0,0,1,.745-2.36A1.805,1.805,0,0,1,64.5,33.1m-3,1.571c.255.484.843.6,1.715.137.939-.5,1.32-1.118,1-1.723-.257-.489-.924-.578-1.746-.143s-1.3,1.1-.972,1.73" transform="translate(-59.691 -6.147)" fill="#fff"/>
              <path id="Path_72692" data-name="Path 72692" d="M63.6,36.591c-.3.243-.378.334-.343.452a1.119,1.119,0,0,0,.216.337.827.827,0,0,0,.491.343,1.662,1.662,0,0,0,.571-.131l.094.168c-.183.107-.672.367-.814.42l-1.6-1.975.134-.109c.3.321.355.33.8-.033l1.421-1.153c.448-.361.451-.418.22-.753l.134-.109,1,1.242L65.8,35.4c-.288-.308-.343-.316-.793.046Z" transform="translate(-59.301 -5.507)" fill="#fff"/>
              <path id="Path_72693" data-name="Path 72693" d="M67.256,36.623a2.188,2.188,0,0,1,.859,1.336,1.543,1.543,0,0,1-.359,1.147c-.838,1-1.977.8-2.94,0L63.78,38.24l.11-.134c.341.241.4.239.765-.2L65.83,36.5c.367-.444.361-.5.1-.762l.107-.131Zm-2.05,1.7c-.314.376-.346.5-.052.748a1.3,1.3,0,0,0,1.91-.354c.733-.876.513-1.525-.068-2.011a.8.8,0,0,0-.256-.164c-.04,0-.111.078-.2.188Z" transform="translate(-58.79 -5)" fill="#fff"/>
              <path id="Path_72694" data-name="Path 72694" d="M68.026,38.258c.273-.506.255-.558-.066-.772l.081-.15,2.15,1.168c-.04.082-.2.435-.347.757l-.175-.073a.993.993,0,0,0,.058-.522c-.034-.121-.171-.232-.447-.383l-.182-.1c-.179-.1-.188-.1-.276.06l-.524.965.342.18c.4.221.431.205.677-.139l.166.091-.553,1.025-.17-.091c.154-.4.152-.426-.251-.643l-.342-.19-.4.74c-.184.339-.22.448-.148.55a1.308,1.308,0,0,0,.382.253.86.86,0,0,0,.606.147,1.472,1.472,0,0,0,.483-.343l.154.126c-.126.166-.484.594-.594.7l-2.312-1.253.081-.151c.4.182.456.167.73-.338Z" transform="translate(-57.956 -4.436)" fill="#fff"/>
              <path id="Path_72695" data-name="Path 72695" d="M71.646,42.618l-.31-.1-1.25-3.1-.012-.005-.323,1.055a7.358,7.358,0,0,0-.252.99c-.028.187.08.292.411.408l-.052.163L68.6,41.642l.049-.166c.26.068.4.033.481-.137a7.494,7.494,0,0,0,.35-.957l.312-1.008c.1-.325.141-.448.085-.6s-.176-.225-.379-.3l.05-.166.886.276,1.259,2.9.008,0,.28-.9a7.344,7.344,0,0,0,.247-.985c.03-.19-.076-.294-.407-.412l.049-.163,1.262.388-.048.164c-.259-.069-.4-.034-.481.137a7.256,7.256,0,0,0-.351.958Z" transform="translate(-57.222 -4.121)" fill="#fff"/>
              <path id="Path_72696" data-name="Path 72696" d="M75.021,41.875c.012.391.041.506.151.549a1.384,1.384,0,0,0,.4.028.823.823,0,0,0,.57-.19,1.682,1.682,0,0,0,.233-.542l.195.03c-.025.212-.109.758-.151.9l-2.54.109-.007-.174c.435-.049.475-.089.453-.663l-.08-1.832c-.023-.575-.066-.614-.475-.626l-.007-.172,1.6-.065.005.17c-.414.049-.456.09-.432.663Z" transform="translate(-55.537 -3.819)" fill="#fff"/>
              <path id="Path_72697" data-name="Path 72697" d="M77.392,38.869a1.687,1.687,0,0,1,2.064,1.322A1.765,1.765,0,0,1,78.1,42.424a1.692,1.692,0,0,1-2.1-1.31,1.808,1.808,0,0,1,1.389-2.246m.774,3.293c.533-.125.789-.667.562-1.627-.241-1.03-.75-1.559-1.417-1.4-.537.129-.789.75-.577,1.654s.741,1.538,1.432,1.373" transform="translate(-54.827 -3.953)" fill="#fff"/>
              <path id="Path_72698" data-name="Path 72698" d="M80.875,41.086l.117-.077c.167-.106.167-.171-.011-.341-.137-.131-.339-.345-.5-.489l-.858.391c.007.17.041.41.069.647.042.277.074.325.309.248l.129-.042.069.159-1.1.5-.073-.152c.277-.168.329-.22.3-.734l-.154-2.94.2-.176.732.757c.465.485.943.965,1.351,1.369.379.376.467.366.737.277l.07.158-1.332.606Zm-1.293-.793.707-.323-.8-.839-.016.005Z" transform="translate(-53.822 -4.196)" fill="#fff"/>
              <path id="Path_72699" data-name="Path 72699" d="M82.156,38.613l.386-.27c.375-.266.375-.3.192-.651l.158-.111.642.921-.158.107c-.272-.3-.3-.309-.679-.045l-.384.269.459.659c.333.472.39.483.791.239l.1.141-1.331.936-.1-.145c.3-.245.31-.3-.02-.768l-1.053-1.5c-.329-.472-.386-.48-.719-.282l-.1-.143,2.022-1.416c.056.07.3.375.526.648l-.15.123a1,1,0,0,0-.437-.285c-.126-.024-.285.049-.542.231l-.19.133c-.166.117-.172.123-.066.273Z" transform="translate(-53.398 -4.692)" fill="#fff"/>
              <path id="Path_72700" data-name="Path 72700" d="M84.158,35.845c-.46-.343-.517-.333-.772-.046l-.135-.1,1.472-1.957c.07.049.4.26.7.449l-.1.164a.993.993,0,0,0-.508-.134c-.122.016-.256.134-.443.388l-.123.166c-.122.16-.129.168.023.281l.871.656.236-.312c.276-.367.262-.394-.041-.691l.114-.154.931.7-.114.154c-.369-.213-.4-.213-.671.154l-.237.308.673.5c.308.233.411.285.52.224a1.189,1.189,0,0,0,.31-.334.882.882,0,0,0,.233-.583,1.534,1.534,0,0,0-.269-.529l.146-.131c.147.152.516.562.6.688l-1.579,2.105-.134-.1c.236-.371.232-.426-.229-.773Z" transform="translate(-52.449 -5.607)" fill="#fff"/>
              <path id="Path_72701" data-name="Path 72701" d="M86.662,34.9a1.133,1.133,0,0,0,1.192-.424.531.531,0,0,0-.249-.748c-.321-.166-.569-.072-.911.208l-.091.073a1.148,1.148,0,0,1-1.279.265,1.069,1.069,0,0,1-.38-1.53,1.5,1.5,0,0,1,.292-.4c.061-.062.117-.119.166-.172.18.072.41.148.719.249l-.056.187c-.327-.05-.74-.082-.944.322a.5.5,0,0,0,.233.7c.243.126.5.038.822-.225l.146-.115a1.129,1.129,0,0,1,1.3-.255,1.148,1.148,0,0,1,.4,1.635,1.779,1.779,0,0,1-.325.437,2.334,2.334,0,0,1-.257.227c-.141-.025-.5-.137-.807-.233Z" transform="translate(-51.952 -6.117)" fill="#fff"/>
              <path id="Path_72702" data-name="Path 72702" d="M88.45,31.679c.545.174.594.146.772-.3l.16.052-.518,1.636-.16-.05c.1-.448.083-.5-.464-.673l-2.3-.728-.038.129c-.131.416-.113.569-.049.672a1.1,1.1,0,0,0,.4.334l-.054.187c-.354-.138-.7-.276-.951-.371l.03-.1c.145-.053.168-.1.215-.239l.644-2.046a.329.329,0,0,0-.037-.317l.029-.1c.215.062.62.164.974.248l-.045.187a1,1,0,0,0-.555.029c-.111.054-.2.213-.292.513l-.064.208Z" transform="translate(-51.797 -6.901)" fill="#fff"/>
              <path id="Path_72704" data-name="Path 72704" d="M62.94,23.525l-.038.2c.027.024.072.062.133.11.1.1.194.188.29.278a.992.992,0,0,1,.225.343,1.954,1.954,0,0,1,.074.367,1.779,1.779,0,0,1,.023.24c0-.017-.06.058-.187.221a2.847,2.847,0,0,1,.18.253.462.462,0,0,1-.012.228c0,.024-.032.054-.085.1s-.133.1-.239.187c.011.023.044.076.1.162.042.061.062.1.057.115a.919.919,0,0,1-.109.194.741.741,0,0,1-.846.384,1.846,1.846,0,0,1-.809-.472,2.391,2.391,0,0,1-.622-.834l.016-.073.019,0c.008,0,.015,0,.032,0s.087.072.183.2a2.124,2.124,0,0,0,.312.351,1.072,1.072,0,0,0,.483.259.546.546,0,0,0,.179.017c.239-.036.447-.239.616-.6a1.765,1.765,0,0,0,.073-.29c.016-.072.028-.144.037-.215a4.107,4.107,0,0,0-.009-.925.8.8,0,0,0-.38.471c-.056.192-.117.39-.174.586a3.8,3.8,0,0,1-.553-.525l.3-1.469Zm1.119,1.319a.505.505,0,0,1,.058.057,2.441,2.441,0,0,1,.27.42l-.371.455a1.846,1.846,0,0,0,.187.326.332.332,0,0,1-.072.117c-.089.119-.187.235-.294.353-.019-.013-.131-.167-.347-.465.048-.049.113-.117.2-.205a.748.748,0,0,0,.156-.2.672.672,0,0,0-.106-.2,1.2,1.2,0,0,1-.109-.188c0-.009.07-.089.2-.248s.207-.231.22-.225" transform="translate(-59.672 -8.982)" fill="#fff"/>
              <path id="Path_72705" data-name="Path 72705" d="M63.606,22.069l-.215.573a.432.432,0,0,1-.171.19.78.78,0,0,1-.415.07l.331.4-.41,1.07-.7-.265.467-1.232c.007-.019-.042-.046-.139-.085l-.135-.049a.991.991,0,0,1-.285-.154,1.439,1.439,0,0,1-.208-.306c-.05-.115-.1-.229-.156-.343L62,22.1l.188.1c.118.065.18.1.191.1a.251.251,0,0,0,.156.012.464.464,0,0,0,.3-.321L62.9,21.8Zm.821,1.063c.019.005.038.04.066.106a2.9,2.9,0,0,1,.131.457.169.169,0,0,1,0,.1.684.684,0,0,1-.194.143,3.571,3.571,0,0,1-.334.186c-.054-.008-.073-.008-.057,0a.141.141,0,0,1-.056-.069,3.345,3.345,0,0,1-.187-.444.284.284,0,0,1-.029-.137.368.368,0,0,1,.1-.081.786.786,0,0,0,.1-.048.847.847,0,0,1,.111-.062,1.31,1.31,0,0,1,.353-.148" transform="translate(-59.51 -9.496)" fill="#fff"/>
              <path id="Path_72706" data-name="Path 72706" d="M64.174,19.97a.872.872,0,0,1,.2.151.974.974,0,0,1,.213.248.59.59,0,0,1,.074.361.255.255,0,0,0-.013.056L63.4,22.949l-.655-.378.2-.353a9.259,9.259,0,0,1-.7-1.135c-.036-.025-.1-.077-.187-.15-.019-.016-.127-.138-.321-.37a4.57,4.57,0,0,1,1.966-.7,1.019,1.019,0,0,1,.337.052.96.96,0,0,1,.131.054m-.9,1.079a.257.257,0,0,0-.245,0,.384.384,0,0,0-.183.137.431.431,0,0,0-.009.208.788.788,0,0,0,.054.22.507.507,0,0,1,.029.081c.013.041.024.064.032.066.048.024.121,0,.229-.085a.688.688,0,0,0,.172-.162.451.451,0,0,0,.013-.239c-.013-.122-.044-.2-.093-.224m.789-.607a.91.91,0,0,0-.448.052.242.242,0,0,0-.109.065.153.153,0,0,0,.024.148.3.3,0,0,0,.093.115.174.174,0,0,0,.141,0,.192.192,0,0,0,.125-.077Z" transform="translate(-59.455 -10.127)" fill="#fff"/>
              <path id="Path_72707" data-name="Path 72707" d="M63.621,17.7a1.606,1.606,0,0,1,0,.516.228.228,0,0,1-.042.109.594.594,0,0,1-.278.093c-.122.019-.221.028-.312.033a1.228,1.228,0,0,1-.05-.526.344.344,0,0,1,.019-.139,2.234,2.234,0,0,1,.665-.085m3.163.77-.5.575a.088.088,0,0,1-.09.02c-.077-.038-.2-.084-.365-.144a.5.5,0,0,0,.054.211,1.258,1.258,0,0,1,.081.207.1.1,0,0,1-.011.09L65,20.528a.134.134,0,0,1-.138.033.223.223,0,0,1-.115-.054,2.826,2.826,0,0,1-.477-.548c-.17-.253-.232-.419-.18-.494a2.717,2.717,0,0,0,.378.335.1.1,0,0,0,.056.024.285.285,0,0,0,.09-.015l.887-1.022a.135.135,0,0,0-.042-.05l-1.017-.518A5.747,5.747,0,0,1,64.1,17.4c.111.053.277.137.5.244.241.127.6.306,1.083.542a.792.792,0,0,0,.241.05c.041-.005.058-.005.054,0a1.7,1.7,0,0,1,.229-.264Z" transform="translate(-59.066 -10.929)" fill="#fff"/>
              <path id="Path_72708" data-name="Path 72708" d="M65.787,16.082l.037.874.66.654a1.326,1.326,0,0,1,.123.171c.069.114.159.3.28.562a.148.148,0,0,0,0,.036.155.155,0,0,1-.041.125l-.7.586-.489-.579.551-.461c.009-.011,0-.029-.028-.066a3.252,3.252,0,0,0-.251-.237q-.209-.191-.43-.387A3.769,3.769,0,0,0,65.048,17a.352.352,0,0,0-.148-.008c-.09,0-.139,0-.148-.016a.568.568,0,0,1-.034-.171c-.03-.119-.054-.235-.076-.353a1.967,1.967,0,0,1-.034-.4c.012-.012.027-.012.05,0a.77.77,0,0,0,.17.142.4.4,0,0,0,.22.023c.081-.009.164-.023.249-.036a2.826,2.826,0,0,0,.492-.1" transform="translate(-58.522 -11.372)" fill="#fff"/>
              <path id="Path_72709" data-name="Path 72709" d="M67.359,16.655a1.747,1.747,0,0,1,.33,1.189l-1.5-1.65a3.829,3.829,0,0,1-.085-1.027,14.538,14.538,0,0,1,1.253,1.489" transform="translate(-58.033 -11.657)" fill="#fff"/>
              <path id="Path_72710" data-name="Path 72710" d="M73.061,15.687l-3.925,1.4a.624.624,0,0,1-.415-.061.719.719,0,0,1-.355-.3c-.065-.118-.1-.18-.1-.192A1.9,1.9,0,0,1,68.181,16a1.177,1.177,0,0,1,.045-.526.386.386,0,0,1,.044.064c.005.009.015.081.036.217s.03.209.034.221a.674.674,0,0,0,.223.3.334.334,0,0,0,.333.094l1.975-.705a1.257,1.257,0,0,1-.046-.2,2.484,2.484,0,0,1,.369-.867,1.426,1.426,0,0,1,.626-.62.348.348,0,0,1,.375.118,1.086,1.086,0,0,1,.228.373,1.345,1.345,0,0,1-.044.662s.145-.056.427-.148Zm-1.7-2.2a.989.989,0,0,1-.084.211c-.019.028-.064.089-.133.184-.082.118-.138.183-.159.187a.881.881,0,0,1-.331-.081c-.19-.064-.288-.113-.3-.142s.033-.154.134-.338a2.662,2.662,0,0,1,.184-.306c.154.052.265.089.329.114a2.007,2.007,0,0,1,.361.171m.7,1.643a.638.638,0,0,0-.158-.205.283.283,0,0,0-.278-.08.866.866,0,0,0-.225.18c-.122.117-.176.2-.159.248.011.033.062.058.158.086a.355.355,0,0,0,.152.027.715.715,0,0,0,.236-.049.433.433,0,0,0,.274-.207" transform="translate(-57.359 -12.297)" fill="#fff"/>
              <path id="Path_72711" data-name="Path 72711" d="M73.971,15.446l-.443.061c-.24.032-.419-.091-.544-.37a4.612,4.612,0,0,0-.191.468l-1.061.147-.1-.753,1.217-.163a1.881,1.881,0,0,0,.013-.355.714.714,0,0,1-.029-.264,4.612,4.612,0,0,1,.4-.622l.052.359a1.388,1.388,0,0,1,.013.255c0,.155.007.239.008.247a.274.274,0,0,0,.154.22.417.417,0,0,0,.262.041l.143-.02Zm-.192.753c-.056.1-.11.191-.16.286-.086.152-.146.228-.17.232a2.6,2.6,0,0,1-.558-.232,1.55,1.55,0,0,0-.236.339,1.992,1.992,0,0,1-.585-.24.779.779,0,0,1,.113-.223c.07-.106.133-.212.2-.314a1.617,1.617,0,0,0,.522.235s.086-.119.269-.354Z" transform="translate(-56.233 -12.169)" fill="#fff"/>
              <path id="Path_72712" data-name="Path 72712" d="M76.51,15.1l-.464.737-2.822-.074.019-.75.508.016a1.886,1.886,0,0,1,.053-.4,2.414,2.414,0,0,1,.481-.533,1.636,1.636,0,0,1,.606-.375.943.943,0,0,1,.274-.036.586.586,0,0,1,.426.142,1.176,1.176,0,0,1,.477.627,1.147,1.147,0,0,1,.053.175l-.005.1a1.2,1.2,0,0,0-.6-.325,2.34,2.34,0,0,0-.412-.044,2.175,2.175,0,0,0-.518.034.516.516,0,0,0-.243.094,3.279,3.279,0,0,0,.456.437.592.592,0,0,0,.191.133Zm-1.153-2.107c0,.049-.082.126-.245.231a1.236,1.236,0,0,1-.276.154,1.19,1.19,0,0,1-.264-.178c-.152-.118-.229-.2-.225-.233s.08-.107.239-.244a1.346,1.346,0,0,1,.264-.2,2.289,2.289,0,0,1,.508.472" transform="translate(-55.715 -12.519)" fill="#fff"/>
              <path id="Path_72713" data-name="Path 72713" d="M78.7,15.962l-.485-.1a.6.6,0,0,1-.247-.134l-.042.034a3.292,3.292,0,0,1-.554.623.95.95,0,0,1-.787.312,1.848,1.848,0,0,1-.676-.4,2.141,2.141,0,0,1-.553-.57l.02-.089c0-.007.013-.011.038-.005-.016,0,.048.054.186.18a.957.957,0,0,0,.406.227.977.977,0,0,0,.436-.021,3.678,3.678,0,0,0,.586-.223c.363-.164.559-.312.587-.437a.876.876,0,0,0-.115-.406c-.1-.2-.141-.3-.141-.306a1.652,1.652,0,0,1,.256-.294c.154-.163.244-.249.266-.268.073.194.146.386.217.582a.771.771,0,0,0,.4.453.966.966,0,0,0,.178.065l.184.041Z" transform="translate(-55.019 -12.01)" fill="#fff"/>
              <path id="Path_72714" data-name="Path 72714" d="M80.125,14.359l-.738.468-.237.9c-.024.061-.052.126-.086.2-.065.114-.183.285-.351.521l-.03.021a.13.13,0,0,1-.125.027l-.855-.312.261-.712.672.244c.015.007.027-.015.045-.06s.037-.147.081-.33.078-.375.122-.57a4.045,4.045,0,0,0,.078-.578c0-.012-.017-.057-.066-.13s-.069-.125-.062-.141a1.5,1.5,0,0,1,.129-.114c.087-.084.179-.166.27-.245a2.42,2.42,0,0,1,.335-.229.051.051,0,0,1,.024.045.8.8,0,0,0-.038.219.4.4,0,0,0,.089.2c.052.066.1.131.156.194a2.728,2.728,0,0,0,.327.382" transform="translate(-54.256 -12.259)" fill="#fff"/>
              <path id="Path_72715" data-name="Path 72715" d="M80.318,16a1.722,1.722,0,0,1-.864.875l.681-2.117a3.7,3.7,0,0,1,.848-.589A14.762,14.762,0,0,1,80.318,16" transform="translate(-53.685 -11.983)" fill="#fff"/>
              <path id="Path_72716" data-name="Path 72716" d="M83.228,19.412l-.557-.43a.286.286,0,0,1-.114-.182.578.578,0,0,1,.037-.346c.044-.1.085-.209.127-.318a1.006,1.006,0,0,0-.355.125.36.36,0,0,1-.327.042l-.846-.933c.225-.178.374-.288.435-.33a1.055,1.055,0,0,1,.961-.209c.159.027.4.058.721.1a1.014,1.014,0,0,1,.073-.2l.757-.306a.108.108,0,0,1,.015.037c-.062.147-.154.338-.277.567-.142.28-.354.7-.627,1.255a.2.2,0,0,0,0,.142.277.277,0,0,0,.1.139l.216.167.114.086Zm-.354-1.586.27-.558a2.073,2.073,0,0,1-.452.078,1.23,1.23,0,0,0-.312-.019ZM84.14,16.22a3.806,3.806,0,0,1-.476.11.233.233,0,0,1-.13,0,1.935,1.935,0,0,1-.269-.571,1.385,1.385,0,0,0-.224.015.781.781,0,0,1-.191.008.356.356,0,0,1-.06-.08,3.084,3.084,0,0,1-.211-.5c.068-.019.269-.057.6-.117a3.381,3.381,0,0,0,.182.471.3.3,0,0,0,.046.073s.151-.005.463-.007Z" transform="translate(-53.119 -11.683)" fill="#fff"/>
              <path id="Path_72717" data-name="Path 72717" d="M83.63,19.493l-.424-.434a.47.47,0,0,0,.094-.178.434.434,0,0,0-.174,0,.162.162,0,0,1-.135-.042l-.422-.43.541-.53c.369.362.548.545.545.554a1.266,1.266,0,0,0,.208-.084.982.982,0,0,1,.164-.141,1.465,1.465,0,0,1,.351-.044.89.89,0,0,1,.355.03l-.11.127a6.151,6.151,0,0,1-.693.392l.24.245Z" transform="translate(-52.671 -10.773)" fill="#fff"/>
              <path id="Path_72718" data-name="Path 72718" d="M84.772,20.981l-.354-.448a1.679,1.679,0,0,0,.086-.2l-.224.021-.562-.705c.03-.1.033-.163.013-.188a.183.183,0,0,0-.1-.024.215.215,0,0,1-.1-.021l-.3-.384.589-.464.337.426q.034.04.115-.016a1.5,1.5,0,0,0,.123-.094.225.225,0,0,1,.041-.028c.015,0,.08-.008.2-.024.152-.013.26-.024.322-.025a1.008,1.008,0,0,1,.309.025,3.455,3.455,0,0,1-.8.506c0,.011.109.145.318.4.021.02.038.024.05.009a.4.4,0,0,1,.04-.045.851.851,0,0,0,.065-.08.278.278,0,0,1,.065-.068.128.128,0,0,1,.09-.032c.086-.009.211-.02.37-.029a.852.852,0,0,1,.288.044c-.146.13-.286.256-.427.383-.171.152-.212.281-.135.382l.168.209Z" transform="translate(-52.454 -10.549)" fill="#fff"/>
              <path id="Path_72719" data-name="Path 72719" d="M85.08,21.628l-.322-.509a.531.531,0,0,0,.133-.156.569.569,0,0,0-.17-.034.162.162,0,0,1-.126-.07l-.319-.509.636-.4a6.734,6.734,0,0,1,.41.658,1.535,1.535,0,0,0,.228-.04,1.062,1.062,0,0,1,.188-.1,1.465,1.465,0,0,1,.358.027.862.862,0,0,1,.343.1l-.135.1a6.489,6.489,0,0,1-.769.243l.183.288Z" transform="translate(-52.115 -10.1)" fill="#fff"/>
              <path id="Path_72720" data-name="Path 72720" d="M86.531,22.55a.955.955,0,0,1-.3.117l-.636.054-.459-.937a.48.48,0,0,0,.062-.114c-.03-.009-.078-.027-.147-.05L84.8,21.11l.677-.334.289.583a.21.21,0,0,1,.061-.013.836.836,0,0,1,.22-.065,1.284,1.284,0,0,1,.772.209l-.042.021s-.064.005-.2.029c-.178.03-.384.078-.615.142-.017,0-.021.017-.017.04s.049.1.106.223c.065.134.1.207.106.213a.067.067,0,0,0,.053,0,.884.884,0,0,1,.2-.125.292.292,0,0,1,.18-.02c.129.017.232.032.3.049a1.693,1.693,0,0,1,.375.127Z" transform="translate(-51.946 -9.83)" fill="#fff"/>
              <path id="Path_72721" data-name="Path 72721" d="M88.314,23.128A1.149,1.149,0,0,1,88,23.072a1.762,1.762,0,0,0-.673-.723c.052-.028.129-.007.228.054.072.044.145.089.211.134-.011-.077-.019-.2-.029-.357a.088.088,0,0,1,.048-.082.676.676,0,0,1,.489.017.574.574,0,0,1,.367.314.3.3,0,0,1,.015.148c-.008.077-.033.126-.081.143l-.285-.052a1.85,1.85,0,0,0,.046-.289.7.7,0,0,0-.208-.186c-.062.082-.056.244.013.492Z" transform="translate(-51.121 -9.411)" fill="#fff"/>
              <path id="Path_72722" data-name="Path 72722" d="M86.56,25.015l-.162-.493a2.644,2.644,0,0,1-.538-.106,3.114,3.114,0,0,1-.581-.285.726.726,0,0,1-.327-.4,1.842,1.842,0,0,1-.065-.432v-.3a2.982,2.982,0,0,1,.056-.406c.024-.109.052-.168.091-.18l.064-.025a.114.114,0,0,1,.04.056c.007.015.016.114.04.3s.04.289.042.3a1.1,1.1,0,0,0,.1.236,2.873,2.873,0,0,0,.262.314,2.392,2.392,0,0,0,.651.494,5.929,5.929,0,0,1-.082-.648.6.6,0,0,1,.053-.182.3.3,0,0,1,.1-.154.631.631,0,0,1,.141-.076,1.441,1.441,0,0,1,.541-.034c.065,0,.151.008.251.019.072.013.171.029.3.046a.94.94,0,0,1,.252.091.6.6,0,0,1,.207.145.417.417,0,0,1,.058.119.223.223,0,0,1,.016.152,1.092,1.092,0,0,1-.5.575,4.06,4.06,0,0,1-.428.256l.129.388Zm.447-1.159.164-.142a.508.508,0,0,0,.141-.213.135.135,0,0,0,.007-.087.278.278,0,0,0-.04-.052.57.57,0,0,0-.2-.09.109.109,0,0,0-.054,0c-.02.009-.028.013-.027.007a.406.406,0,0,0-.078.137.663.663,0,0,0-.02.18.5.5,0,0,0,.033.138.312.312,0,0,0,.074.122" transform="translate(-51.916 -9.307)" fill="#fff"/>
              <path id="Path_72723" data-name="Path 72723" d="M87.291,26.363a1,1,0,0,1-.448-.1c-.141-.064-.282-.119-.42-.179a5.165,5.165,0,0,0,.28-1.188.167.167,0,0,0-.091-.069c-.073-.024-.148-.046-.22-.065-.139-.045-.212-.091-.22-.137l-.077-.439.738-.129.086.508a.459.459,0,0,0,.187.06c.069.019.171.045.308.085a1.172,1.172,0,0,1,.611.388,1.287,1.287,0,0,1,.378.6c.015.093-.005.156-.062.19-.084.032-.156.065-.236.1s-.188.093-.338.166a1.629,1.629,0,0,1-.475.208m.072-.716a1.337,1.337,0,0,0,.3-.19.521.521,0,0,0-.176-.333Z" transform="translate(-51.523 -8.761)" fill="#fff"/>
            </g>
            <path id="Path_72724" data-name="Path 72724" d="M74.913,24.81s3.1-.137,3.1-2.853c0-2.543-2.079-3.008-3.041-5.134-.957,2.126-3.037,2.592-3.037,5.134,0,2.716,2.979,2.853,2.979,2.853" transform="translate(-43.618 -7.863)" fill="#ffda00"/>
            <path id="Path_72725" data-name="Path 72725" d="M75.034,25.595h-.023a3.41,3.41,0,0,1-3.448-3.345,4.623,4.623,0,0,1,1.692-3.479,6.549,6.549,0,0,0,1.391-1.857l.445-.99.448.99a6.558,6.558,0,0,0,1.392,1.855,4.628,4.628,0,0,1,1.693,3.481c0,2.52-2.335,3.29-3.566,3.345Zm.058-7.478A9.618,9.618,0,0,1,73.96,19.45a3.682,3.682,0,0,0-1.416,2.8c0,2.134,2.222,2.345,2.49,2.364.272-.019,2.609-.239,2.609-2.364a3.686,3.686,0,0,0-1.417-2.8A9.944,9.944,0,0,1,75.092,18.117Z" transform="translate(-43.739 -8.155)" fill="#181710"/>
            <path id="Path_72726" data-name="Path 72726" d="M73.687,28.614a2.611,2.611,0,0,0,1.145-3.732c-1.062-1.779-3.648-2.67-5.088-3.688l-.029.04c.017,1.767-.631,4.351.225,6.235a2.608,2.608,0,0,0,3.717,1.186Z" transform="translate(-44.413 -6.439)" fill="#ffda00"/>
            <path id="Path_72727" data-name="Path 72727" d="M72.366,29.645h0a2.941,2.941,0,0,1-2.752-1.815,9.635,9.635,0,0,1-.367-4.767c.052-.6.1-1.175.1-1.665l0-.155.371-.536.434.244a16.67,16.67,0,0,0,1.517.9,9.3,9.3,0,0,1,3.711,2.942,2.991,2.991,0,0,1,.369,2.345,3.433,3.433,0,0,1-1.6,2.012l-.011.011L74,29.251A3.69,3.69,0,0,1,72.366,29.645ZM70.3,22.206c-.021.3-.048.618-.077.943a8.963,8.963,0,0,0,.282,4.277,1.947,1.947,0,0,0,1.861,1.238h0a2.693,2.693,0,0,0,1.112-.251l.093-.07A2.466,2.466,0,0,0,74.8,26.881a2,2,0,0,0-.265-1.59,8.6,8.6,0,0,0-3.338-2.584C70.883,22.539,70.58,22.372,70.3,22.206Z" transform="translate(-44.533 -6.598)" fill="#181710"/>
            <path id="Path_72728" data-name="Path 72728" d="M73.8,33.88a2.487,2.487,0,0,0,.887-3.614c-1.107-1.639-3.616-2.344-5.044-3.237l-.023.04c.107,1.681-.37,4.177.55,5.925a2.491,2.491,0,0,0,3.606.928Z" transform="translate(-44.382 -4.539)" fill="#ffda00"/>
            <path id="Path_72729" data-name="Path 72729" d="M72.418,34.975h0a2.8,2.8,0,0,1-2.56-1.592,9.182,9.182,0,0,1-.611-4.538c.017-.578.036-1.122.005-1.586l-.009-.144.322-.574.459.232a16.072,16.072,0,0,0,1.489.77,8.85,8.85,0,0,1,3.7,2.608,2.864,2.864,0,0,1,.484,2.227,3.3,3.3,0,0,1-1.417,2.011l-.008.013-.134.1A3.52,3.52,0,0,1,72.418,34.975Zm-2.171-6.959c0,.276-.012.563-.021.858a8.54,8.54,0,0,0,.5,4.05A1.84,1.84,0,0,0,72.418,34a2.534,2.534,0,0,0,1.153-.3l.09-.074a2.34,2.34,0,0,0,1.078-1.446A1.883,1.883,0,0,0,74.4,30.7a8.2,8.2,0,0,0-3.313-2.275C70.8,28.287,70.515,28.154,70.247,28.016Z" transform="translate(-44.502 -4.698)" fill="#181710"/>
            <rect id="Rectangle_6891" data-name="Rectangle 6891" width="0.982" height="10.796" transform="translate(30.857 18.932)" fill="#181710"/>
            <path id="Path_72730" data-name="Path 72730" d="M76.158,28.614a2.61,2.61,0,0,1-1.145-3.732c1.061-1.779,3.644-2.67,5.091-3.688l.024.04c-.012,1.767.635,4.351-.221,6.235a2.612,2.612,0,0,1-3.72,1.186Z" transform="translate(-42.746 -6.439)" fill="#ffda00"/>
            <path id="Path_72731" data-name="Path 72731" d="M77.718,29.659a3.682,3.682,0,0,1-1.631-.394l-.117-.057-.036-.054a3.42,3.42,0,0,1-1.591-2,2.982,2.982,0,0,1,.369-2.349,9.277,9.277,0,0,1,3.716-2.946,16.621,16.621,0,0,0,1.511-.894l.428-.3.345.565.027.182c0,.487.046,1.053.1,1.653a9.641,9.641,0,0,1-.367,4.78A2.946,2.946,0,0,1,77.718,29.659Zm-1.08-1.217a2.679,2.679,0,0,0,1.08.236,1.948,1.948,0,0,0,1.861-1.241,8.97,8.97,0,0,0,.285-4.287c-.029-.319-.057-.631-.077-.929-.282.166-.581.329-.888.5a8.58,8.58,0,0,0-3.345,2.586,1.988,1.988,0,0,0-.264,1.591,2.463,2.463,0,0,0,1.225,1.461Z" transform="translate(-42.866 -6.612)" fill="#181710"/>
            <path id="Path_72732" data-name="Path 72732" d="M76,33.88a2.486,2.486,0,0,1-.888-3.614c1.108-1.639,3.62-2.344,5.044-3.237l.027.04c-.111,1.681.366,4.177-.555,5.925a2.484,2.484,0,0,1-3.6.928Z" transform="translate(-42.733 -4.539)" fill="#ffda00"/>
            <path id="Path_72733" data-name="Path 72733" d="M77.624,34.98a3.508,3.508,0,0,1-1.721-.469l-.1-.058-.036-.053a3.289,3.289,0,0,1-1.422-2.012,2.865,2.865,0,0,1,.481-2.231,8.868,8.868,0,0,1,3.7-2.606,15.455,15.455,0,0,0,1.49-.772l.4-.253.359.532.015.211c-.03.465-.013,1.012,0,1.591a9.181,9.181,0,0,1-.615,4.53A2.8,2.8,0,0,1,77.624,34.98Zm-1.135-1.266A2.534,2.534,0,0,0,77.624,34a1.835,1.835,0,0,0,1.69-1.07,8.511,8.511,0,0,0,.5-4.042c-.008-.3-.016-.589-.019-.867-.27.135-.557.273-.85.414a8.148,8.148,0,0,0-3.309,2.271,1.881,1.881,0,0,0-.334,1.478,2.322,2.322,0,0,0,1.078,1.445Z" transform="translate(-42.853 -4.703)" fill="#181710"/>
          </g>
        </g>
      </g>
    </g>
    <g id="Group_7222" data-name="Group 7222" transform="translate(128.194 9.539)">
      <g id="Group_7212" data-name="Group 7212" transform="translate(0.008 23.706)">
        <g id="Group_7210" data-name="Group 7210" transform="translate(0 4.975)">
          <g id="Group_7209" data-name="Group 7209">
            <path id="Path_72734" data-name="Path 72734" d="M120.238,42.656a10.662,10.662,0,0,1-4.457,1c-4.706,0-6.65-3.369-6.65-6.133a6.311,6.311,0,0,1,6.578-6.347,10.316,10.316,0,0,1,4.279,1.034v1.783a8.622,8.622,0,0,0-4.315-1.266,4.7,4.7,0,1,0,.16,9.4,7.763,7.763,0,0,0,2.657-.536V39.054h-2.335V37.521h4.082Z" transform="translate(-109.131 -31.174)" fill="#fff"/>
            <path id="Path_72735" data-name="Path 72735" d="M132.086,37.4c0,3.495-2.674,6.257-6.651,6.257a6.244,6.244,0,1,1,.09-12.48A6.244,6.244,0,0,1,132.086,37.4Zm-11.268.053a4.547,4.547,0,0,0,4.725,4.583,5,5,0,0,0,3.549-1.445,5.1,5.1,0,0,0,1.212-3.21,4.745,4.745,0,0,0-9.485.072Z" transform="translate(-105.911 -31.174)" fill="#fff"/>
            <path id="Path_72736" data-name="Path 72736" d="M132.242,41.867h5.474v1.587h-7.24V31.3h1.766Z" transform="translate(-102.179 -31.134)" fill="#fff"/>
            <path id="Path_72737" data-name="Path 72737" d="M141.194,31.3a7.5,7.5,0,0,1,4.743,1.247,6.024,6.024,0,0,1,2.336,4.831,6.106,6.106,0,0,1-2.924,5.17,8.111,8.111,0,0,1-4.4.909h-3.851V31.3Zm-2.372,1.55v9.04h2.247a6.823,6.823,0,0,0,3.37-.7,4.572,4.572,0,0,0,2.032-3.9,4.226,4.226,0,0,0-2.532-3.993,6.452,6.452,0,0,0-2.923-.447Z" transform="translate(-100.024 -31.134)" fill="#fff"/>
            <path id="Path_72738" data-name="Path 72738" d="M154.068,32.846h-5.153v3.709h4.974v1.551h-4.974v3.78h5.313v1.568h-7.059V31.3h6.9Z" transform="translate(-96.742 -31.134)" fill="#fff"/>
            <path id="Path_72739" data-name="Path 72739" d="M165.484,43.454h-1.5l-8.13-9.359v9.359h-1.64V31.3h1.408l8.2,9.431V31.3h1.657Z" transform="translate(-94.447 -31.134)" fill="#fff"/>
            <path id="Path_72740" data-name="Path 72740" d="M170.173,41.867h5.474v1.587h-7.24V31.3h1.766Z" transform="translate(-89.825 -31.134)" fill="#fff"/>
            <path id="Path_72741" data-name="Path 72741" d="M186.937,37.4c0,3.495-2.674,6.257-6.65,6.257a6.244,6.244,0,1,1,.089-12.48A6.244,6.244,0,0,1,186.937,37.4Zm-11.267.053a4.546,4.546,0,0,0,4.725,4.583,5,5,0,0,0,3.548-1.445,5.1,5.1,0,0,0,1.212-3.21,4.744,4.744,0,0,0-9.484.072Z" transform="translate(-88.047 -31.174)" fill="#fff"/>
            <path id="Path_72742" data-name="Path 72742" d="M195.686,43.472H193.9l-1.623-3.583h-5.17l-1.534,3.583H183.8l5.225-12.231h1.229Zm-4.118-5.152-1.962-4.4-1.818,4.4Z" transform="translate(-84.813 -31.152)" fill="#fff"/>
            <path id="Path_72743" data-name="Path 72743" d="M200.278,32.864h-4.742v3.37h4.742V37.8h-4.742v5.651h-1.747V31.3h6.489Z" transform="translate(-81.558 -31.134)" fill="#fff"/>
          </g>
        </g>
        <g id="Group_7211" data-name="Group 7211" transform="translate(112.595)">
          <path id="Path_72744" data-name="Path 72744" d="M194.332,29.045a.9.9,0,0,0,.888,1.039,1.267,1.267,0,0,0,.848-.349v.273a1.375,1.375,0,0,1-.874.3,1.133,1.133,0,0,1-1.131-1.208,1.071,1.071,0,0,1,1.041-1.149.962.962,0,0,1,.908.59,1.234,1.234,0,0,1,.1.5Zm1.489-.192a.944.944,0,0,0-.137-.363.667.667,0,0,0-.579-.318.778.778,0,0,0-.748.681Z" transform="translate(-194.064 -27.247)" fill="#fff"/>
          <path id="Path_72745" data-name="Path 72745" d="M197.229,28.408a1.106,1.106,0,0,0-.62-.232.44.44,0,0,0-.489.383c0,.262.317.379.54.455.207.076.635.227.635.672a.673.673,0,0,1-.736.626,1.28,1.28,0,0,1-.681-.208v-.236a1.514,1.514,0,0,0,.707.216c.313,0,.469-.187.469-.379,0-.277-.248-.367-.626-.514-.147-.056-.536-.2-.536-.61a.671.671,0,0,1,.732-.626,1.2,1.2,0,0,1,.606.192Z" transform="translate(-193.474 -27.247)" fill="#fff"/>
          <path id="Path_72746" data-name="Path 72746" d="M197.9,28.174h.636v.2H197.9v1.387c0,.212,0,.257.046.333a.3.3,0,0,0,.3.146.942.942,0,0,0,.41-.1v.232a1.1,1.1,0,0,1-.469.117.527.527,0,0,1-.475-.273,1.013,1.013,0,0,1-.052-.449V28.377h-.61v-.2h.61v-.541l.167-.212h.076Z" transform="translate(-193.091 -27.421)" fill="#fff"/>
          <path id="Path_72747" data-name="Path 72747" d="M198.849,29.818h-.329v-.489h.329Z" transform="translate(-192.613 -26.8)" fill="#fff"/>
        </g>
      </g>
      <g id="Group_7216" data-name="Group 7216" transform="translate(0.008)">
        <g id="Group_7214" data-name="Group 7214" transform="translate(0 4.714)">
          <g id="Group_7213" data-name="Group 7213">
            <path id="Path_72748" data-name="Path 72748" d="M124.6,24.072h-1.518a2.388,2.388,0,0,1-1.833-.8,3.2,3.2,0,0,1-.749-1.4q-.7-3.287-2.752-3.259c-1.049.019-1.779.675-2.21,1.966h3.6v2.3a5.216,5.216,0,0,1-1.461,3.727,4.722,4.722,0,0,1-7,0,5.234,5.234,0,0,1-1.46-3.745c-.019-.468-.037-1.217-.074-2.284H111.1c0,.318,0,.768.02,1.311s.037.86.037.992a3.113,3.113,0,0,0,1.03,2.434,2.858,2.858,0,0,0,1.965.8,2.817,2.817,0,0,0,2-.8,3.187,3.187,0,0,0,1.012-2.471l-.019-.431h-3.988a6.794,6.794,0,0,1,1.236-4.362,4.338,4.338,0,0,1,6.721.28,9.351,9.351,0,0,1,1.123,2.734,1.454,1.454,0,0,0,1.517,1.2h.843Zm-10.653,7.358h-1.8v-1.89h1.8Zm2.715,0h-1.8v-1.89h1.8Z" transform="translate(-109.131 -11.959)" fill="#fff"/>
            <path id="Path_72749" data-name="Path 72749" d="M129.467,23.911h-1.835a1.831,1.831,0,0,1-1.441-.711,2.729,2.729,0,0,1-.468-.806,2.46,2.46,0,0,1-2.323,1.517h-2.958V22.094h2.21a1.654,1.654,0,0,0,.973-.3,1.123,1.123,0,0,0,.581-1.01l-.038-3.707h1.966q0,1.038.057,2.919a2.119,2.119,0,0,0,.581,1.574,1.357,1.357,0,0,0,1.029.524h1.666v1.816ZM126.3,26.756h-1.815v-1.89H126.3Z" transform="translate(-105.447 -11.798)" fill="#fff"/>
            <path id="Path_72750" data-name="Path 72750" d="M139.909,24.141h-12.9V22.324h3.557a3.517,3.517,0,0,1-.616-2,4.06,4.06,0,0,1,.224-1.385c-.412.168-.786.318-1.1.468-.131-.281-.412-.88-.843-1.816a11.486,11.486,0,0,1,4.812-1.216,6.168,6.168,0,0,1,5.242,2.677A8.392,8.392,0,0,1,139.909,24.141Zm-5.353-3.819a2.378,2.378,0,0,0-.449-1.5,1.2,1.2,0,0,0-.937-.487,1.071,1.071,0,0,0-.879.487,2.491,2.491,0,0,0-.431,1.5,2.357,2.357,0,0,0,.431,1.479,1.167,1.167,0,0,0,.936.505C133.994,22.306,134.556,21.594,134.556,20.321Zm3.089,1.985a5.207,5.207,0,0,0-1.348-2.527,2.924,2.924,0,0,1,.056.579,3.738,3.738,0,0,1-.468,1.947Z" transform="translate(-103.308 -12.028)" fill="#fff"/>
            <path id="Path_72751" data-name="Path 72751" d="M149.145,24.748H138.437l.936-1.816h5.2a3.971,3.971,0,0,0-1.086-2.471,2.2,2.2,0,0,0-1.517-.768V17.915a4.055,4.055,0,0,1,3.07,1.236,6.405,6.405,0,0,1,1.555,3.781h2.545ZM143.791,16.4h-1.818v-1.89h1.818Z" transform="translate(-99.586 -12.635)" fill="#fff"/>
            <path id="Path_72752" data-name="Path 72752" d="M150.758,22.774a2.271,2.271,0,0,1-2.527,2.434h-1.985V23.392h1.273a1.194,1.194,0,0,0,1.273-1.291c0-1.161-.019-2.658-.037-4.493-.019-2.079-.037-3.6-.037-4.513h1.966c.019.862.019,2.471.037,4.849C150.74,19.966,150.758,21.575,150.758,22.774Z" transform="translate(-97.043 -13.095)" fill="#fff"/>
            <path id="Path_72753" data-name="Path 72753" d="M153.546,25.208H151.58L151.486,13.1h1.966Z" transform="translate(-95.336 -13.095)" fill="#fff"/>
            <path id="Path_72754" data-name="Path 72754" d="M173.021,25.061H170.98a8.1,8.1,0,0,1-3.107-.636,7.9,7.9,0,0,1-3.052.636h-1.367c-.524.019-.973.019-1.328.019a4.4,4.4,0,0,1-4.1-2.3,8.722,8.722,0,0,1-.974-4.548h1.966a7.436,7.436,0,0,0,.636,3.294,2.7,2.7,0,0,0,2.565,1.722h2.266a6.793,6.793,0,0,0,1.254-.15,4.031,4.031,0,0,1-1.31-2.958,3.052,3.052,0,0,1,1.047-2.434,3.505,3.505,0,0,1,2.378-.823,3.67,3.67,0,0,1,2.415.823,3.053,3.053,0,0,1,1.049,2.434,4.057,4.057,0,0,1-1.311,2.958,10.7,10.7,0,0,0,1.966.15h1.049Zm-3.689-5a1.475,1.475,0,1,0-2.92,0,2.664,2.664,0,0,0,.619,1.665q.533.618.842.618t.843-.618A2.669,2.669,0,0,0,169.332,20.063Zm-.6-4.625h-1.816v-1.89h1.816Z" transform="translate(-93.525 -12.948)" fill="#fff"/>
            <path id="Path_72755" data-name="Path 72755" d="M177.685,23.911h-1.666a1.833,1.833,0,0,1-1.441-.711,2.759,2.759,0,0,1-.468-.806,2.458,2.458,0,0,1-2.321,1.517h-2.959V22.094h2.21a1.654,1.654,0,0,0,.973-.3,1.123,1.123,0,0,0,.581-1.01l-.037-3.707h1.965q0,1.038.057,2.919a2.119,2.119,0,0,0,.581,1.574,1.357,1.357,0,0,0,1.029.524h1.5v1.816Zm-5,2.845h-1.815v-1.89h1.815Zm2.7,0h-1.8v-1.89h1.8Z" transform="translate(-89.688 -11.798)" fill="#fff"/>
            <path id="Path_72756" data-name="Path 72756" d="M179.565,20.862v1.816h-4.324V20.862Z" transform="translate(-87.599 -10.565)" fill="#fff"/>
            <path id="Path_72757" data-name="Path 72757" d="M187.236,24.748h-8.987V22.932H181.3a1.961,1.961,0,0,1-.392-.581,3.307,3.307,0,0,1-.431-1.647,2.711,2.711,0,0,1,1.047-2.3,3.3,3.3,0,0,1,2.153-.729,3.237,3.237,0,0,1,2.641,1.217l-1.049,1.441a1.784,1.784,0,0,0-1.385-.711,1.327,1.327,0,0,0-1.367,1.4,1.9,1.9,0,0,0,2.153,1.89h1.909ZM184.408,16.4h-1.816v-1.89h1.816Z" transform="translate(-86.62 -12.635)" fill="#fff"/>
            <path id="Path_72758" data-name="Path 72758" d="M184.789,26.419a3.972,3.972,0,0,0,4.1-4.043v-5.3h1.985V20.2a1.945,1.945,0,0,0,1.628,1.89h2.079v1.816h-1.947a1.96,1.96,0,0,1-1.741-1.161,5.282,5.282,0,0,1-4.867,5.223C185.742,27.6,185.331,27.075,184.789,26.419Z" transform="translate(-84.49 -11.798)" fill="#fff"/>
            <path id="Path_72759" data-name="Path 72759" d="M196.419,22.774a2.271,2.271,0,0,1-2.528,2.434h-1.985V23.392h1.274a1.194,1.194,0,0,0,1.273-1.291c0-1.161-.019-2.658-.037-4.493-.019-2.079-.037-3.6-.037-4.513h1.966c.017.862.017,2.471.037,4.849C196.4,19.966,196.419,21.575,196.419,22.774Z" transform="translate(-82.172 -13.095)" fill="#fff"/>
            <path id="Path_72760" data-name="Path 72760" d="M199.2,25.208H197.24L197.146,13.1h1.966Z" transform="translate(-80.465 -13.095)" fill="#fff"/>
          </g>
        </g>
        <g id="Group_7215" data-name="Group 7215" transform="translate(105.093)">
          <path id="Path_72761" data-name="Path 72761" d="M190.44,12.2H190a.413.413,0,0,1-.461-.48H188.9c-.331,0-.5-.208-.5-.62a.844.844,0,0,1,.213-.627.553.553,0,0,1,.412-.179.579.579,0,0,1,.479.249h.009v-.213h.3V11.7c0,.143.061.219.183.219h.439Zm-.917-.749,0-.643a.465.465,0,0,0-.41-.269.318.318,0,0,0-.269.143.674.674,0,0,0-.122.435.552.552,0,0,0,.034.217.207.207,0,0,0,.209.117Zm-.475-1.509h-.322V9.6h.322Zm.53,0h-.321V9.6h.321Z" transform="translate(-188.405 -9.518)" fill="#fff"/>
          <path id="Path_72762" data-name="Path 72762" d="M193.956,11.676v.278h-.435a.454.454,0,0,1-.431-.327.555.555,0,0,1-.553.387.7.7,0,0,1-.347-.073.645.645,0,0,1-.239-.278.511.511,0,0,1-.544.342.752.752,0,0,1-.343-.064.5.5,0,0,1-.183-.179v.192H189.9v-.278h.687V11c0-.135,0-.3,0-.505h.3v.761c0,.321.178.483.513.483a.273.273,0,0,0,.294-.3c0-.091,0-.41-.012-.948h.3c0,.166,0,.418,0,.761a.465.465,0,0,0,.158.366.559.559,0,0,0,.374.117.286.286,0,0,0,.308-.3c0-.082,0-.439-.012-1.074h.3c0,.187,0,.475.009.866a.481.481,0,0,0,.139.335.338.338,0,0,0,.239.109Z" transform="translate(-187.919 -9.27)" fill="#fff"/>
          <path id="Path_72763" data-name="Path 72763" d="M196.137,11.44a.552.552,0,0,1-.579.574.7.7,0,0,1-.347-.073.645.645,0,0,1-.239-.278.51.51,0,0,1-.544.342.762.762,0,0,1-.345-.064.523.523,0,0,1-.187-.183v.2h-.982v-.278h.692V11c0-.135,0-.3-.005-.505h.3v.761a.447.447,0,0,0,.513.483.274.274,0,0,0,.3-.3c0-.091,0-.41-.013-.948h.3c0,.166,0,.418.005.761a.46.46,0,0,0,.156.366.559.559,0,0,0,.374.117.287.287,0,0,0,.309-.3c0-.082-.005-.439-.013-1.074h.3C196.133,11.053,196.137,11.411,196.137,11.44Z" transform="translate(-186.936 -9.27)" fill="#fff"/>
          <path id="Path_72764" data-name="Path 72764" d="M197.819,12.224h-.662a1.187,1.187,0,0,1-1.082.943c-.027-.057-.07-.143-.127-.269a.9.9,0,0,0,.57-.188.99.99,0,0,0,.33-.485h-.391a.6.6,0,0,1-.487-.228.917.917,0,0,1,.091-1.194.682.682,0,0,1,.464-.175.6.6,0,0,1,.679.687v.632h.614Zm-.888-1.857h-.887l.1-.171h.256a.393.393,0,0,1-.1-.269.377.377,0,0,1,.37-.387.307.307,0,0,1,.252.131l-.077.121a.215.215,0,0,0-.17-.09c-.118,0-.174.082-.174.252a.212.212,0,0,0,.239.243h.195Zm-.025,1.579v-.726c0-.257-.127-.387-.347-.387a.366.366,0,0,0-.3.147.671.671,0,0,0-.143.444c0,.29.162.522.418.522Z" transform="translate(-185.999 -9.539)" fill="#fff"/>
          <path id="Path_72765" data-name="Path 72765" d="M199.13,11.148c0,.508-.265.818-.717.818H197.2v-.278h.631a.856.856,0,0,1-.179-.54.718.718,0,0,1,.726-.818.693.693,0,0,1,.561.261A.847.847,0,0,1,199.13,11.148Zm-.294,0a.654.654,0,0,0-.139-.431.39.39,0,0,0-.3-.139.36.36,0,0,0-.292.139.66.66,0,0,0-.126.431.637.637,0,0,0,.139.431.4.4,0,0,0,.3.139.363.363,0,0,0,.292-.139A.678.678,0,0,0,198.836,11.144Z" transform="translate(-185.541 -9.281)" fill="#fff"/>
        </g>
      </g>
      <g id="Group_7218" data-name="Group 7218" transform="translate(74.182 48.414)">
        <g id="Group_7217" data-name="Group 7217">
          <path id="Path_72766" data-name="Path 72766" d="M168.827,50.346h-3.745l.327-.635h1.82a1.4,1.4,0,0,0-.379-.864.772.772,0,0,0-.53-.268v-.622a1.415,1.415,0,0,1,1.072.432,2.231,2.231,0,0,1,.544,1.322h.891Zm-1.873-2.919h-.634v-.662h.634Z" transform="translate(-165.082 -45.829)" fill="#fff"/>
          <path id="Path_72767" data-name="Path 72767" d="M170.974,50.344h-.648a.641.641,0,0,1-.505-.249.968.968,0,0,1-.163-.281.86.86,0,0,1-.811.53h-1.034v-.635h.772a.584.584,0,0,0,.341-.1.392.392,0,0,0,.2-.354l-.013-1.3h.688q0,.362.019,1.021a.741.741,0,0,0,.2.55.472.472,0,0,0,.359.183h.59v.635Zm-1.212-2.913h-.635V46.77h.635Z" transform="translate(-164.193 -45.827)" fill="#fff"/>
          <path id="Path_72768" data-name="Path 72768" d="M173.195,48.84a1.105,1.105,0,0,1-1.164,1.23h-1.925v-.635h.793a1.329,1.329,0,0,1-.138-.6,1.114,1.114,0,0,1,1.19-1.23,1.21,1.21,0,0,1,.931.392A1.223,1.223,0,0,1,173.195,48.84Zm-.679.007a.731.731,0,0,0-.172-.5.468.468,0,0,0-.358-.163.44.44,0,0,0-.361.163.78.78,0,0,0-.146.5.728.728,0,0,0,.172.5.463.463,0,0,0,.358.163C172.3,49.507,172.516,49.266,172.516,48.847Z" transform="translate(-163.446 -45.554)" fill="#fff"/>
          <path id="Path_72769" data-name="Path 72769" d="M178.688,50.07h-.118a1.145,1.145,0,0,1-1.047-.57,1.081,1.081,0,0,1-1.041.57,1.213,1.213,0,0,1-.851-.308,1.2,1.2,0,0,1-.38-.72h-.339a.348.348,0,0,0-.334.156.931.931,0,0,0-.046.387l.027,1.9h-.687l-.033-2.271a.755.755,0,0,1,.858-.858h.615a1.05,1.05,0,0,1,1.119-.752,1.2,1.2,0,0,1,.831.3,1.186,1.186,0,0,1,.386.673.948.948,0,0,0,1.042.851Zm-1.7-1.224a.731.731,0,0,0-.171-.5.472.472,0,0,0-.366-.163.434.434,0,0,0-.347.163.781.781,0,0,0-.15.5.727.727,0,0,0,.17.5.465.465,0,0,0,.361.163C176.776,49.507,176.992,49.266,176.992,48.847Z" transform="translate(-162.231 -45.554)" fill="#fff"/>
          <path id="Path_72770" data-name="Path 72770" d="M181.91,50.387H177.4v-.635h2.665a1.339,1.339,0,0,0-.44-.838,1.185,1.185,0,0,0-.79-.274,1.782,1.782,0,0,0-.976.308l-.255-.537,1.761-1.774.491.477-.9.884c1.015,0,1.609.582,1.782,1.754h1.183Z" transform="translate(-161.072 -45.871)" fill="#fff"/>
          <path id="Path_72771" data-name="Path 72771" d="M183.86,50.346h-.64a.641.641,0,0,1-.505-.249.935.935,0,0,1-.162-.281.861.861,0,0,1-.811.53h-1.035v-.635h.773a.577.577,0,0,0,.339-.1.393.393,0,0,0,.2-.354l-.013-1.3h.687q0,.362.019,1.021a.741.741,0,0,0,.2.55.472.472,0,0,0,.361.183h.581v.635Zm-1.688-2.919h-.635v-.662h.635Zm.949,0h-.635v-.662h.635Z" transform="translate(-159.993 -45.829)" fill="#fff"/>
          <path id="Path_72772" data-name="Path 72772" d="M186.091,48.84a1.106,1.106,0,0,1-1.167,1.23H183v-.635h.791a1.347,1.347,0,0,1-.138-.6,1.116,1.116,0,0,1,1.193-1.23,1.2,1.2,0,0,1,.928.392A1.225,1.225,0,0,1,186.091,48.84Zm-.681.007a.73.73,0,0,0-.17-.5.469.469,0,0,0-.361-.163.443.443,0,0,0-.361.163.779.779,0,0,0-.143.5.727.727,0,0,0,.17.5.465.465,0,0,0,.361.163C185.194,49.507,185.41,49.266,185.41,48.847Z" transform="translate(-159.246 -45.554)" fill="#fff"/>
          <path id="Path_72773" data-name="Path 72773" d="M189.667,50.053h-3.744l.326-.635h1.821a1.389,1.389,0,0,0-.382-.864.765.765,0,0,0-.529-.268v-.622a1.411,1.411,0,0,1,1.072.432,2.231,2.231,0,0,1,.544,1.322h.891Z" transform="translate(-158.294 -45.536)" fill="#fff"/>
          <path id="Path_72774" data-name="Path 72774" d="M192.228,50.346h-3.586V49.7h2.879c-.131-.772-.51-1.159-1.132-1.159a1.359,1.359,0,0,0-.871.223l-.269-.537a1.715,1.715,0,0,1,1.159-.341,1.583,1.583,0,0,1,1.441.8A3.206,3.206,0,0,1,192.228,50.346Zm-1.42-2.919h-.635v-.662h.635Z" transform="translate(-157.409 -45.829)" fill="#fff"/>
          <path id="Path_72775" data-name="Path 72775" d="M198.154,50.109h-.53a.838.838,0,0,1-.642-.281,1.125,1.125,0,0,1-.262-.492c-.164-.765-.483-1.145-.962-1.139-.366.007-.62.236-.772.688h1.257v.8a1.821,1.821,0,0,1-.512,1.3,1.611,1.611,0,0,1-1.222.542,1.628,1.628,0,0,1-1.225-.542,1.834,1.834,0,0,1-.509-1.31c-.008-.163-.013-.426-.027-.8h.687c0,.111,0,.268.005.457s.013.3.013.347a1.093,1.093,0,0,0,.361.851,1,1,0,0,0,.687.281.978.978,0,0,0,.7-.281,1.116,1.116,0,0,0,.355-.864l-.008-.15h-1.395A2.39,2.39,0,0,1,194.585,48a1.519,1.519,0,0,1,2.352.1,3.322,3.322,0,0,1,.392.956.507.507,0,0,0,.53.419h.294Zm-3.725,2.572H193.8v-.66h.628Zm.949,0h-.628v-.66h.628Z" transform="translate(-156.071 -45.593)" fill="#fff"/>
          <path id="Path_72776" data-name="Path 72776" d="M199.293,50c.005.386-.191.575-.591.575h-2v-.635h1.623c.17,0,.257-.1.262-.3v-.183h-.562a1.014,1.014,0,0,1-.8-.367,1.11,1.11,0,0,1-.276-.8,1.238,1.238,0,0,1,.445-.976,1.069,1.069,0,0,1,.779-.255q1.106.087,1.119,1.041Zm-.708-1.172c-.005-.537-.005-.831-.005-.884a.436.436,0,0,0-.1-.223.377.377,0,0,0-.329-.176c-.308,0-.5.274-.53.7a.54.54,0,0,0,.5.583Zm-.093-2.108h-.634v-.662h.634Z" transform="translate(-154.784 -46.059)" fill="#fff"/>
        </g>
      </g>
      <g id="Group_7220" data-name="Group 7220" transform="translate(0 48.788)">
        <g id="Group_7219" data-name="Group 7219">
          <path id="Path_72777" data-name="Path 72777" d="M111.271,47.294a1.35,1.35,0,0,0-.958-.426c-.4,0-.648.216-.648.475,0,.347.24.492,1.019.947a1.783,1.783,0,0,1,.528.456,1.077,1.077,0,0,1,.221.677,1.1,1.1,0,0,1-1.186,1.116,1.841,1.841,0,0,1-1.1-.378v-.744a1.435,1.435,0,0,0,1.1.6.587.587,0,0,0,.635-.54c0-.342-.347-.594-.54-.708a3.377,3.377,0,0,1-1.013-.732.949.949,0,0,1-.2-.611,1.1,1.1,0,0,1,1.205-1.086,1.706,1.706,0,0,1,.941.288Z" transform="translate(-109.125 -46.341)" fill="#fff"/>
          <path id="Path_72778" data-name="Path 72778" d="M113.672,46.9h-1.734V48.15h1.674v.522h-1.674v1.271h1.787v.528h-2.374v-4.09h2.321Z" transform="translate(-108.4 -46.328)" fill="#fff"/>
          <path id="Path_72779" data-name="Path 72779" d="M114.748,46.382a1.732,1.732,0,0,1,.7.131,1.061,1.061,0,0,1,.642,1.009,1.023,1.023,0,0,1-.684,1.006,3.4,3.4,0,0,1,.912,1.128c.172.281.274.42.557.815h-.695c-.139-.2-.709-1.091-.84-1.266-.4-.516-.6-.516-.882-.516H114.3v1.782h-.582v-4.09Zm-.443.5v1.289h.228a2.1,2.1,0,0,0,.569-.06.62.62,0,0,0,.39-.587.6.6,0,0,0-.312-.546,1.6,1.6,0,0,0-.7-.1Z" transform="translate(-107.627 -46.328)" fill="#fff"/>
          <path id="Path_72780" data-name="Path 72780" d="M117.635,50.5H117.5l-1.763-4.114h.587l1.23,2.873,1.222-2.873h.582Z" transform="translate(-106.97 -46.328)" fill="#fff"/>
          <path id="Path_72781" data-name="Path 72781" d="M119.407,50.472h-.589v-4.09h.589Z" transform="translate(-105.968 -46.328)" fill="#fff"/>
          <path id="Path_72782" data-name="Path 72782" d="M123.749,50.472h-.505l-2.734-3.149v3.149h-.551v-4.09h.473l2.759,3.172V46.382h.558Z" transform="translate(-105.596 -46.328)" fill="#fff"/>
          <path id="Path_72783" data-name="Path 72783" d="M127.1,50.2a3.593,3.593,0,0,1-1.5.337,2.066,2.066,0,0,1-2.236-2.064,2.123,2.123,0,0,1,2.213-2.134,3.454,3.454,0,0,1,1.44.349v.6a2.9,2.9,0,0,0-1.452-.426,1.581,1.581,0,1,0,.054,3.16,2.62,2.62,0,0,0,.894-.18v-.852h-.786v-.516H127.1Z" transform="translate(-104.486 -46.341)" fill="#fff"/>
          <path id="Path_72784" data-name="Path 72784" d="M131.538,48.7a1.7,1.7,0,0,1-.461,1.379,1.9,1.9,0,0,1-1.29.444,1.773,1.773,0,0,1-1.535-.715,2.093,2.093,0,0,1-.228-1.108V46.382h.587V48.7c0,.54.048.749.258.958a1.189,1.189,0,0,0,.917.342,1.116,1.116,0,0,0,1.055-.54,1.641,1.641,0,0,0,.114-.761V46.382h.582Z" transform="translate(-102.97 -46.328)" fill="#fff"/>
          <path id="Path_72785" data-name="Path 72785" d="M134.839,50.478h-.6l-.546-1.205h-1.738l-.516,1.205h-.6l1.758-4.114h.414Zm-1.385-1.733-.659-1.482-.612,1.482Z" transform="translate(-102.053 -46.334)" fill="#fff"/>
          <path id="Path_72786" data-name="Path 72786" d="M136.518,46.9h-1.734V48.15h1.673v.522h-1.673v1.271h1.787v.528H134.2v-4.09h2.321Z" transform="translate(-100.959 -46.328)" fill="#fff"/>
          <path id="Path_72787" data-name="Path 72787" d="M139.805,47.294a1.35,1.35,0,0,0-.958-.426c-.4,0-.648.216-.648.475,0,.347.24.492,1.019.947a1.782,1.782,0,0,1,.528.456,1.077,1.077,0,0,1,.223.677,1.1,1.1,0,0,1-1.188,1.116,1.844,1.844,0,0,1-1.1-.378v-.744a1.435,1.435,0,0,0,1.1.6.589.589,0,0,0,.636-.54c0-.342-.349-.594-.541-.708a3.4,3.4,0,0,1-1.013-.732.949.949,0,0,1-.2-.611,1.1,1.1,0,0,1,1.205-1.086,1.7,1.7,0,0,1,.941.288Z" transform="translate(-99.832 -46.341)" fill="#fff"/>
          <path id="Path_72788" data-name="Path 72788" d="M140.479,50.472h-.589v-4.09h.589Z" transform="translate(-99.105 -46.328)" fill="#fff"/>
          <path id="Path_72789" data-name="Path 72789" d="M144.82,50.472h-.5l-2.734-3.149v3.149h-.551v-4.09h.473l2.759,3.172V46.382h.557Z" transform="translate(-98.733 -46.328)" fill="#fff"/>
          <path id="Path_72790" data-name="Path 72790" d="M148.076,47.307a2.887,2.887,0,0,0-1.416-.408,1.55,1.55,0,0,0-1.619,1.552,1.524,1.524,0,0,0,1.625,1.542,2.669,2.669,0,0,0,1.45-.456v.642a3.019,3.019,0,0,1-1.486.361,2.082,2.082,0,0,1-2.2-2.093,2.138,2.138,0,0,1,2.213-2.105,3.621,3.621,0,0,1,1.433.337Z" transform="translate(-97.626 -46.341)" fill="#fff"/>
          <path id="Path_72791" data-name="Path 72791" d="M150.077,46.9h-1.734V48.15h1.673v.522h-1.673v1.271h1.787v.528h-2.374v-4.09h2.321Z" transform="translate(-96.543 -46.328)" fill="#fff"/>
        </g>
      </g>
      <g id="Group_7221" data-name="Group 7221" transform="translate(56.879 48.356)">
        <path id="Path_72792" data-name="Path 72792" d="M152.979,50.591V46.9l-.949.512v-.761l1.131-.632h.619v4.576Z" transform="translate(-152.03 -46.015)" fill="#fff"/>
        <path id="Path_72793" data-name="Path 72793" d="M154.783,49.594h.028a1.841,1.841,0,0,0,1.129.363c.821,0,1.177-.573,1.21-1.466a1.146,1.146,0,0,1-1.049.558,1.362,1.362,0,0,1-1.468-1.461,1.538,1.538,0,0,1,1.608-1.567c1.124,0,1.7.847,1.7,2.247,0,1.79-.921,2.415-1.957,2.415a2.266,2.266,0,0,1-1.205-.3ZM157,47.312a.756.756,0,0,0-.748-.578.782.782,0,0,0-.821.847.764.764,0,0,0,.8.821.844.844,0,0,0,.842-.632A1.535,1.535,0,0,0,157,47.312Z" transform="translate(-151.182 -46.013)" fill="#fff"/>
        <path id="Path_72794" data-name="Path 72794" d="M158.324,50.567c.5-1.265,1.171-2.726,1.662-3.748h-2.275v-.728h3.109v.52c-.585,1.311-1.137,2.6-1.656,3.956Z" transform="translate(-150.179 -45.99)" fill="#fff"/>
        <path id="Path_72795" data-name="Path 72795" d="M160.754,49.594h.028a1.84,1.84,0,0,0,1.128.363c.822,0,1.179-.573,1.212-1.466a1.146,1.146,0,0,1-1.049.558,1.362,1.362,0,0,1-1.468-1.461,1.538,1.538,0,0,1,1.608-1.567c1.124,0,1.7.847,1.7,2.247,0,1.79-.921,2.415-1.957,2.415a2.266,2.266,0,0,1-1.205-.3Zm2.221-2.282a.756.756,0,0,0-.748-.578.782.782,0,0,0-.821.847.764.764,0,0,0,.8.821.844.844,0,0,0,.842-.632A1.537,1.537,0,0,0,162.975,47.312Z" transform="translate(-149.237 -46.013)" fill="#fff"/>
      </g>
    </g>
  </g>
</svg>
