<svg xmlns="http://www.w3.org/2000/svg" xmlns:xlink="http://www.w3.org/1999/xlink" width="73" height="73" viewBox="0 0 73 73">
  <defs>
    <filter id="Ellipse_44" x="0" y="0" width="73" height="73" filterUnits="userSpaceOnUse">
      <feOffset dy="3" input="SourceAlpha"/>
      <feGaussianBlur stdDeviation="3" result="blur"/>
      <feFlood flood-opacity="0.161"/>
      <feComposite operator="in" in2="blur"/>
      <feComposite in="SourceGraphic"/>
    </filter>
  </defs>
  <g id="Group_7266" data-name="Group 7266" transform="translate(-1443 -684)">
    <g transform="matrix(1, 0, 0, 1, 1443, 684)" filter="url(#Ellipse_44)">
      <circle id="Ellipse_44-2" data-name="Ellipse 44" cx="27.5" cy="27.5" r="27.5" transform="translate(9 6)" fill="#fcfcfc"/>
    </g>
    <g id="Group_415" data-name="Group 415" transform="translate(1163.178 1263.593)">
      <g id="Group_414" data-name="Group 414" transform="translate(299.583 -562.821)">
        <path id="Path_460" data-name="Path 460" d="M315.015-562.821h2.55c.032.082.106.059.167.063a13.579,13.579,0,0,1,2,.287,16.493,16.493,0,0,1,9.946,6.326,16.291,16.291,0,0,1,3.291,11.756,15.908,15.908,0,0,1-4.054,9.3,16.388,16.388,0,0,1-14.864,5.58,15.616,15.616,0,0,1-6.627-2.417.7.7,0,0,0-.664-.077q-2.822.918-5.652,1.813a.82.82,0,0,1-.41.091c.639-1.909,1.263-3.808,1.919-5.7a.878.878,0,0,0-.121-.89,16.273,16.273,0,0,1-2.746-7.081,2.687,2.687,0,0,0-.171-.941v-2.681c.082-.031.061-.1.066-.166a16.933,16.933,0,0,1,.328-2.128,16.771,16.771,0,0,1,13.932-12.961A4.792,4.792,0,0,0,315.015-562.821Zm6.873,26.1a3.861,3.861,0,0,0,.494-.031,4.775,4.775,0,0,0,.794-.182c2.357-.823,3.168-1.954,3.235-4.144a.7.7,0,0,0-.432-.728c-1.234-.595-2.449-1.228-3.7-1.776a1.033,1.033,0,0,0-1.49.414c-.316.43-.629.862-.957,1.282a1.145,1.145,0,0,1-1.644.419,13.291,13.291,0,0,1-6.411-5.677.743.743,0,0,1,.085-.958c.3-.345.6-.7.91-1.027a1.464,1.464,0,0,0,.291-1.833c-.576-1.193-1-2.454-1.567-3.655a.7.7,0,0,0-.475-.459,2.98,2.98,0,0,0-2.661.483,4.887,4.887,0,0,0-1.392,2.023,6.266,6.266,0,0,0,.252,4.762,16.025,16.025,0,0,0,1.98,3.216,24.18,24.18,0,0,0,3.8,4.081,17.771,17.771,0,0,0,6.343,3.32A8.282,8.282,0,0,0,321.888-536.718Z" transform="translate(-299.583 562.821)" fill="#50a13b"/>
      </g>
      <path id="Path_461" data-name="Path 461" d="M400.612-450.994a8.284,8.284,0,0,1-2.551-.47,17.77,17.77,0,0,1-6.343-3.32,24.181,24.181,0,0,1-3.8-4.081,16.025,16.025,0,0,1-1.98-3.216,6.266,6.266,0,0,1-.252-4.762,4.887,4.887,0,0,1,1.392-2.023,2.98,2.98,0,0,1,2.661-.483.7.7,0,0,1,.475.459c.565,1.2.991,2.462,1.567,3.655a1.464,1.464,0,0,1-.291,1.833c-.315.332-.61.682-.91,1.027a.743.743,0,0,0-.085.958,13.292,13.292,0,0,0,6.411,5.677,1.145,1.145,0,0,0,1.644-.419c.329-.42.642-.852.957-1.282a1.033,1.033,0,0,1,1.49-.414c1.256.548,2.471,1.182,3.7,1.776a.7.7,0,0,1,.432.728c-.068,2.19-.878,3.321-3.235,4.144a4.769,4.769,0,0,1-.794.182A3.868,3.868,0,0,1,400.612-450.994Z" transform="translate(-78.724 -85.723)" fill="#fefefd"/>
    </g>
  </g>
</svg>
