<svg id="Group_2626" data-name="Group 2626" xmlns="http://www.w3.org/2000/svg" width="43" height="29.315" viewBox="0 0 43 29.315">
  <path id="Path_8363" data-name="Path 8363" d="M512.854,360.116a3.971,3.971,0,0,0-2.8,1.156,3.89,3.89,0,0,0,0,5.569,3.986,3.986,0,0,0,2.8,1.156,3.94,3.94,0,0,0,0-7.88Zm0,6.129a2.189,2.189,0,1,1,0-4.378,2.189,2.189,0,0,1,0,4.378Zm0,0" transform="translate(-477.699 -338.682)" fill="#5a5a5a"/>
  <path id="Path_8364" data-name="Path 8364" d="M506.032,238.344a.849.849,0,0,0-.587-.228h-4.492a.878.878,0,0,0-.876.876v7.18a.878.878,0,0,0,.876.876h7.127a.878.878,0,0,0,.876-.876v-4.807a.876.876,0,0,0-.289-.648Zm1.173,6.952h-5.376v-5.437H505.1l2.1,1.891Zm0,0" transform="translate(-469.862 -230.034)" fill="#5a5a5a"/>
  <path id="Path_8365" data-name="Path 8365" d="M317.5,360.116a3.973,3.973,0,0,0-2.8,1.156,3.891,3.891,0,0,0,0,5.569A3.987,3.987,0,0,0,317.5,368a3.94,3.94,0,0,0,0-7.88Zm0,6.129a2.189,2.189,0,1,1,0-4.378,2.189,2.189,0,0,1,0,4.378Zm0,0" transform="translate(-303.722 -338.682)" fill="#5a5a5a"/>
  <path id="Path_8366" data-name="Path 8366" d="M267.909,343.879h-1.76V341.55a.876.876,0,1,0-1.751,0v3.2a.878.878,0,0,0,.876.876h2.636a.876.876,0,0,0,0-1.751Zm0,0" transform="translate(-259.977 -321.367)" fill="#5a5a5a"/>
  <path id="Path_8367" data-name="Path 8367" d="M236.372,319.23a.878.878,0,0,0-.876-.876H224.876a.876.876,0,1,0,0,1.751H235.5a.872.872,0,0,0,.876-.876Zm0,0" transform="translate(-224 -301.49)" fill="#5a5a5a"/>
  <path id="Path_8368" data-name="Path 8368" d="M241.185,283.226l10.621.062a.884.884,0,0,0,.884-.867.867.867,0,0,0-.867-.884l-10.621-.062h-.009a.876.876,0,0,0-.009,1.751Zm0,0" transform="translate(-238.533 -268.648)" fill="#5a5a5a"/>
  <path id="Path_8369" data-name="Path 8369" d="M257.435,246.906h10.621a.876.876,0,1,0,0-1.751H257.435a.876.876,0,1,0,0,1.751Zm0,0" transform="translate(-252.995 -236.303)" fill="#5a5a5a"/>
  <path id="Path_8370" data-name="Path 8370" d="M302.653,173.7l-6.269-5.192a.863.863,0,0,0-.56-.2h-7.373v-3.152a.878.878,0,0,0-.876-.876h-22.3a.878.878,0,0,0-.876.876v6.409a.876.876,0,1,0,1.751,0v-5.534h20.559v20.76h-7.18a.876.876,0,1,0,0,1.751h10.691a.876.876,0,0,0,0-1.751h-1.76V170.055h7.057l5.709,4.728-.061,11.987h-.911a.876.876,0,0,0,0,1.751h1.777a.87.87,0,0,0,.876-.867l.07-13.274a.925.925,0,0,0-.324-.683Zm0,0" transform="translate(-259.977 -164.276)" fill="#5a5a5a"/>
</svg>
