<svg id="Master_Card" xmlns="http://www.w3.org/2000/svg" width="47.948" height="33.002" viewBox="0 0 47.948 33.002">
  <rect id="Rectangle_5828" data-name="Rectangle 5828" width="33.002" height="47.948" rx="3" transform="translate(47.948 0) rotate(90)" fill="#033660"/>
  <g id="Group_3556" data-name="Group 3556" transform="translate(8.346 7.587)">
    <g id="g3478" transform="translate(0 0)">
      <g id="g3456">
        <g id="g3159">
          <path id="path3086" d="M9.289,0a9.235,9.235,0,1,0,6.175,16.134q.2-.173.381-.357l.123-.124H14.96l.123.124-.123-.124q-.266-.273-.508-.568l-.107-.131c.035.044.071.088.107.131h2.022q.215-.261.411-.536H14.042q.1.138.2.272c-.069-.089-.135-.18-.2-.272q-.239-.337-.448-.7a9.176,9.176,0,0,1-.486-.961c-.039-.091-.077-.182-.114-.274s-.071-.185-.1-.278c-.067-.186-.129-.376-.184-.568h5.518q.078-.272.14-.551h-5.8q.046.209.1.415-.056-.206-.1-.415-.091-.411-.144-.835c0-.029-.007-.059-.01-.088,0,.029.007.058.01.088q.017.134.038.268h6.01c.028-.178.051-.356.068-.537H12.391c-.018-.187-.029-.376-.036-.567,0-.052,0-.1,0-.157s0-.1,0-.157c0,.053,0,.1,0,.157s0,.105,0,.157h6.217c0-.047,0-.094,0-.14,0-.006,0-.011,0-.017s0,0,0-.006c0-.051,0-.1,0-.152,0-.086,0-.171,0-.256a9.284,9.284,0,0,0-.074-.932H12.427q-.038.292-.057.589,0,.074-.008.149c0,.041,0,.083-.006.124,0-.042,0-.083.006-.124s.005-.1.008-.149a9.171,9.171,0,0,1,.273-1.708q.074-.288.167-.568c.015-.044.029-.088.044-.132s.031-.087.046-.13c-.016.043-.031.086-.046.13s-.03.088-.044.132h5.309c-.058-.176-.12-.35-.189-.521H13c-.017.043-.034.086-.05.129.016-.043.033-.086.05-.129.077-.193.16-.381.249-.568.024-.051.049-.1.074-.152s.051-.1.077-.151c-.026.05-.052.1-.077.151s-.05.1-.074.152h4.434q-.05-.1-.1-.206l-.049-.1-.013-.025L17.5,4.916c-.025-.047-.05-.093-.075-.14l-.059-.1H13.561q.166-.291.354-.568L14,3.976l.091-.127c.061-.084.123-.167.187-.25q.227-.293.477-.567H16.17q-.084-.092-.17-.181-.258-.268-.536-.515A9.286,9.286,0,0,0,9.289,0Zm4.992,3.6c-.064.082-.126.165-.187.25L14,3.976l-.089.129h3.1q-.175-.259-.366-.506ZM12.643,6.927q-.071.273-.124.551H18.41q-.054-.279-.124-.551Zm.246,5.413c.034.094.068.186.1.278s.075.184.114.274h4.713q.118-.272.219-.552Zm.705,1.513.076.128h3.587q.154-.256.292-.521H13.378Q13.482,13.66,13.594,13.854Zm2.711-10.67.067.077ZM17.1,4.233l.054.083Zm.128.2.049.081Zm.511.954.05.11Zm-.271,8.227-.033.059Zm-.321.544-.048.075Zm-.774,1.047-.067.077Zm-.146.167-.08.089Zm-.182.2-.062.064Z" transform="translate(0 0)" fill="#ff0018"/>
          <path id="path3155" d="M418.665,0a9.286,9.286,0,0,0-6.175,2.336,9.332,9.332,0,0,1,.705.7h-1.412q-.249.273-.476.567h2.365q.192.247.366.506h-3.1q-.186.277-.354.568h3.806q.168.293.314.6h-4.434q-.133.279-.249.568h4.932c.068.171.131.345.189.521h-5.309a9.134,9.134,0,0,0-.291,1.119q.054-.279.124-.551h5.642q.071.273.124.551h-5.891q-.068.353-.109.714c.006-.049.012-.1.018-.146h6.074a9.243,9.243,0,0,1,.077,1.189c0,.105,0,.21-.006.315h-6.217c.006.191.019.379.037.567h6.145c-.017.181-.04.36-.068.537h-6.01q.045.287.107.568h5.8q-.061.279-.14.551H409.73c.055.192.117.381.184.568h5.15q-.1.281-.219.552h-4.713a9.184,9.184,0,0,0,.563,1.089q-.154-.256-.292-.521h4.172q-.138.266-.292.521H410.7q.176.291.371.568h2.843q-.2.276-.411.536h-2.022q.242.294.508.568h1.007q-.242.25-.5.481A9.26,9.26,0,1,0,418.665,0Zm-7.6,14.549.1.137Zm-.934-1.656q-.118-.272-.219-.552Q410.015,12.621,410.133,12.893Zm-.752-3.343c0-.052,0-.1,0-.157C409.378,9.445,409.379,9.5,409.381,9.55Zm0-.157c0-.052,0-.1,0-.157C409.375,9.288,409.376,9.34,409.377,9.393Zm.058-1.2c-.011.1-.02.2-.028.3C409.414,8.389,409.423,8.29,409.434,8.192Zm-.028.3c0,.038-.006.076-.008.114C409.4,8.563,409.4,8.526,409.406,8.488Zm.429-2.128c.014-.044.029-.088.044-.132C409.864,6.272,409.85,6.316,409.835,6.36Zm.189-.521c-.014.035-.027.07-.041.106C410,5.909,410.01,5.873,410.024,5.838ZM410.94,4.1l.089-.129Zm.089-.129.09-.127Zm-.6.993c-.024.045-.047.091-.07.137C410.378,5.059,410.4,5.013,410.424,4.968Zm-.457,1.017-.041.112Zm-.581,2.8c0,.047-.005.095-.007.142C409.381,8.879,409.384,8.832,409.386,8.784Zm.06,1.6c0,.029.007.057.011.086Zm.145.84c.01.045.021.09.031.135C409.612,11.316,409.6,11.271,409.592,11.226Zm.065.272c.011.044.022.088.034.132C409.679,11.587,409.668,11.543,409.657,11.5ZM412,15.665l.111.112Z" transform="translate(-397.025 0)" fill="#ffaa18"/>
        </g>
        <g id="g3442" transform="translate(29.467 14.51)">
          <path id="text9407" d="M977.2,480.969a.443.443,0,0,1,.216.057.4.4,0,0,1,.164.162.44.44,0,0,1,0,.438.407.407,0,0,1-.162.163.444.444,0,0,1-.437,0,.411.411,0,0,1-.162-.163.439.439,0,0,1,0-.438.4.4,0,0,1,.165-.162.449.449,0,0,1,.216-.057m0,.072a.373.373,0,0,0-.18.048.335.335,0,0,0-.137.136.366.366,0,0,0,0,.365.349.349,0,0,0,.136.136.369.369,0,0,0,.364,0,.348.348,0,0,0,.136-.136.367.367,0,0,0,0-.365.332.332,0,0,0-.137-.136.369.369,0,0,0-.18-.048m-.192.61v-.473h.163a.381.381,0,0,1,.12.014.116.116,0,0,1,.059.046.12.12,0,0,1,.022.069.125.125,0,0,1-.037.09.054.054,0,1,0-.058.068.56.56,0,0,1,.07.094l.058.093h-.093l-.042-.074a.385.385,0,0,0-.08-.11.1.1,0,0,0-.061-.016h-.045v.2h-.077m.076-.266h.093a.148.148,0,0,0,.09-.02.064.064,0,0,0,.024-.052.062.062,0,0,0-.011-.037.069.069,0,0,0-.033-.025.24.24,0,0,0-.076-.008h-.087v.143" transform="translate(-976.762 -480.969)" fill="#ffaa18"/>
        </g>
      </g>
      <g id="g3463" transform="translate(29.467 10.737)">
        <g id="g3445">
          <path id="path3447" d="M977.2,355.908a.443.443,0,0,1,.216.057.4.4,0,0,1,.164.162.44.44,0,0,1,0,.438.407.407,0,0,1-.162.163.444.444,0,0,1-.437,0,.411.411,0,0,1-.162-.163.439.439,0,0,1,0-.438.4.4,0,0,1,.165-.162.449.449,0,0,1,.216-.057m0,.072a.373.373,0,0,0-.18.048.335.335,0,0,0-.137.136.367.367,0,0,0,0,.365.349.349,0,0,0,.136.136.37.37,0,0,0,.364,0,.348.348,0,0,0,.136-.136.368.368,0,0,0,0-.365.332.332,0,0,0-.137-.136.369.369,0,0,0-.18-.048m-.192.61v-.473h.163a.384.384,0,0,1,.12.013.116.116,0,0,1,.059.046.12.12,0,0,1,.022.069.126.126,0,0,1-.037.09.054.054,0,1,0-.058.068.564.564,0,0,1,.07.094l.058.093h-.093l-.042-.074a.385.385,0,0,0-.08-.11.1.1,0,0,0-.061-.016h-.045v.2h-.077m.076-.266h.093a.148.148,0,0,0,.09-.02.064.064,0,0,0,.024-.052.062.062,0,0,0-.011-.037.07.07,0,0,0-.033-.025.242.242,0,0,0-.076-.008h-.087v.143" transform="translate(-976.762 -355.908)" fill="#fff"/>
        </g>
      </g>
    </g>
    <g id="layer1" transform="translate(1.028 7.444)">
      <g id="g16480">
        <g id="g10289">
          <path id="path4157" d="M368.191,261.8l.122-.705c-.066,0-.164.024-.25.024-.338,0-.375-.154-.354-.267l.273-1.439h.514l.124-.78h-.484l.1-.485h-.971c-.021.018-.573,2.728-.573,3.058,0,.488.321.706.774.7A2.948,2.948,0,0,0,368.191,261.8Z" transform="translate(-356.655 -257.804)" fill="#fff"/>
          <path id="path4155" d="M426.669,273.077c0,1.172.906,1.451,1.678,1.451a2.843,2.843,0,0,0,1.026-.136l.171-.8a3.448,3.448,0,0,1-1.031.2c-1.043,0-.86-.664-.86-.664h1.974a5.161,5.161,0,0,0,.127-.757c0-.547-.318-1.213-1.385-1.213a1.818,1.818,0,0,0-1.7,1.915Zm1.7-1.172c.548,0,.447.526.447.569h-1.078A.637.637,0,0,1,428.372,271.9Z" transform="translate(-414.826 -270.425)" fill="#fff"/>
          <path id="path4151" d="M603.467,250.738l.174-.9a2.629,2.629,0,0,1-.8.2.878.878,0,0,1-.965-.932c0-.979.593-1.518,1.253-1.518a1.927,1.927,0,0,1,.892.237l.159-.879a3.988,3.988,0,0,0-1.094-.2,2.221,2.221,0,0,0-2.212,2.391,1.581,1.581,0,0,0,1.748,1.718,5.182,5.182,0,0,0,.85-.114Z" transform="translate(-583.771 -246.743)" fill="#fff"/>
          <path id="path4149" d="M181.4,271.591a3.853,3.853,0,0,0-1.176.183l-.141.715a3.531,3.531,0,0,1,1.058-.146c.362,0,.626.035.626.286a.462.462,0,0,1-.032.209s-.285-.02-.417-.02c-.84,0-1.722.306-1.722,1.229a.859.859,0,0,0,.938.894,1.34,1.34,0,0,0,1-.381l-.032.317h.855l.382-2.285C182.732,271.622,181.743,271.591,181.4,271.591Zm.208,1.86c.019.14-.1.794-.687.794-.3,0-.38-.2-.38-.313,0-.227.144-.5.856-.5a.717.717,0,0,1,.211.019Z" transform="translate(-175.204 -270.841)" fill="#fff"/>
          <path id="path4145" d="M278.721,275.087c.219,0,1.469.047,1.469-1.055,0-1.03-1.158-.827-1.158-1.241,0-.206.189-.271.534-.271.137,0,.664.037.664.037l.123-.732a5.278,5.278,0,0,0-.9-.065c-.718,0-1.448.245-1.448,1.083,0,.95,1.216.854,1.216,1.255,0,.267-.34.289-.6.289a3.657,3.657,0,0,1-.862-.126l-.129.725a3.572,3.572,0,0,0,1.09.1Z" transform="translate(-270.284 -271.005)" fill="#fff"/>
          <path id="path4139" d="M864.284,249.76l-.209,1.11a1.332,1.332,0,0,0-.938-.431,1.855,1.855,0,0,0-1.632,1.969,1.227,1.227,0,0,0,1.2,1.346,1.291,1.291,0,0,0,.9-.346l-.043.3h.945l.742-3.945Zm-.451,2.165c0,.438-.254,1.023-.781,1.023-.35,0-.513-.251-.513-.644,0-.643.338-1.067.765-1.067C863.653,251.237,863.833,251.442,863.833,251.925Z" transform="translate(-836.544 -249.668)" fill="#fff"/>
          <path id="path4133" d="M35.02,253.648l.591-2.978.087,2.978h.669l1.248-2.978-.553,2.978h.994l.766-3.95H37.285l-.957,2.424-.05-2.424H34.861l-.777,3.95Z" transform="translate(-34.084 -249.609)" fill="#fff"/>
          <path id="path4131" d="M529.033,276.119c.283-1.373.335-2.488,1.01-2.284a2.886,2.886,0,0,1,.361-.962,1.2,1.2,0,0,0-.187-.011c-.435,0-.757.508-.757.508l.087-.466h-.9l-.606,3.215Z" transform="translate(-513.135 -272.074)" fill="#fff"/>
          <g id="use8523" transform="translate(20.132 0.75)">
            <path id="path4149-2" data-name="path4149" d="M703.227,271.591a3.854,3.854,0,0,0-1.176.183l-.141.715a3.531,3.531,0,0,1,1.058-.146c.362,0,.626.035.626.286a.465.465,0,0,1-.032.209s-.285-.02-.417-.02c-.84,0-1.722.306-1.722,1.229a.859.859,0,0,0,.938.894,1.339,1.339,0,0,0,1-.381l-.032.317h.855l.381-2.285c0-.969-.99-1-1.334-1Zm.208,1.86c.018.14-.1.794-.687.794-.3,0-.38-.2-.38-.313,0-.227.144-.5.856-.5a.721.721,0,0,1,.211.019Z" transform="translate(-701.422 -271.591)" fill="#fff"/>
          </g>
          <g id="use8525" transform="translate(23.055 0.788)">
            <path id="path4131-2" data-name="path4131" d="M799.3,276.119c.283-1.373.335-2.488,1.01-2.284a2.888,2.888,0,0,1,.361-.962,1.2,1.2,0,0,0-.187-.011c-.435,0-.757.508-.757.508l.087-.466h-.9l-.606,3.215Z" transform="translate(-798.303 -272.862)" fill="#fff"/>
          </g>
        </g>
      </g>
    </g>
  </g>
</svg>
