<svg id="Move_to_wishlist" xmlns="http://www.w3.org/2000/svg" width="21.313" height="21.313" viewBox="0 0 21.313 21.313">
  <g id="Group_3767" data-name="Group 3767">
    <rect id="Rectangle_5796" data-name="Rectangle 5796" width="21.313" height="21.313" fill="none"/>
  </g>
  <g id="Group_3845" data-name="Group 3845" transform="translate(1.938 3.875)">
    <g id="Group_3847" data-name="Group 3847" transform="translate(0.97)">
      <g id="Group_3846" data-name="Group 3846" transform="translate(0)">
        <g id="Group_3845-2" data-name="Group 3845">
          <path id="Path_18427" data-name="Path 18427" d="M298.862,168.962l2.471,2.471a1.594,1.594,0,0,0,2.253,0l5.343-5.342a4.342,4.342,0,0,0,.07-6.085,4.3,4.3,0,0,0-6.119-.035l-.419.42-.42-.42a4.3,4.3,0,0,0-7.344,3.042" transform="translate(-294.696 -158.71)" fill="none" stroke="#231f20" stroke-linecap="round" stroke-width="1.5"/>
        </g>
      </g>
      <line id="Line_223" data-name="Line 223" x1="0.853" y2="0.86" transform="translate(6.905 1.695)" fill="none" stroke="#231f20" stroke-linecap="round" stroke-width="1.5"/>
    </g>
    <g id="Group_3848" data-name="Group 3848" transform="translate(0 4.547)">
      <path id="Path_18428" data-name="Path 18428" d="M298.336,166.587l2.064,2.064a.173.173,0,0,1,0,.244l-2.064,2.064" transform="translate(-295.264 -166.587)" fill="none" stroke="#231f20" stroke-linecap="round" stroke-width="1.5"/>
      <line id="Line_224" data-name="Line 224" x1="4.564" transform="translate(0 2.186)" fill="none" stroke="#231f20" stroke-linecap="round" stroke-width="1.5"/>
    </g>
  </g>
</svg>
