<svg xmlns="http://www.w3.org/2000/svg" width="36.989" height="36.473" viewBox="0 0 36.989 36.473">
  <g id="Blockchain_Powered" transform="translate(0)">
    <g id="Group_3611" data-name="Group 3611" transform="translate(0)">
      <path id="Path_8481" data-name="Path 8481" d="M3889.875,1557.08c0-.066,0-9.767,0-9.767l-14.449-7.224-14.449,7.224v9.57a17.894,17.894,0,0,0,7.979,14.911l6.471,4.311,4.984-3.32a9.817,9.817,0,1,0,9.46-15.706Zm-14.445,17.638-5.829-3.885a16.736,16.736,0,0,1-7.464-13.95v-8.855l13.293-6.646,13.292,6.646v8.92c-.192-.011-.382-.03-.578-.03s-.387.018-.578.03v-8.207l-12.137-6.068-12.137,6.069v8.142a15.584,15.584,0,0,0,6.95,12.987l5.187,3.456,3.781-2.519a9.816,9.816,0,0,0,.547,1.027Zm3.349-5.011-3.349,2.231-4.546-3.029c-.225-.15-.442-.307-.656-.468v-5.166h-1.156v4.2a14.444,14.444,0,0,1-1.734-1.925v-3.358a1.734,1.734,0,0,1,1.312-1.681l3.92-.982a2.885,2.885,0,0,0,2.282,2.537v2.37h1.156v-2.37a2.884,2.884,0,0,0,2.282-2.537l2.573.646a9.777,9.777,0,0,0-2.083,9.537Zm-6.238-17.413h1.6a6.1,6.1,0,0,0,2.581-.578h.156l1.445,1.926v2.408l-1.927,1.445h-1.926l-1.926-1.445Zm-1.109-1.156a2.262,2.262,0,0,1,1.239-1.67,5.836,5.836,0,0,1,4.058-.256l.133.192h.88a.579.579,0,0,1,.578.578v1.734l-.867-1.156h-1l-.122.061a4.929,4.929,0,0,1-2.19.517Zm5.732,7.224v.867a1.734,1.734,0,1,1-3.467,0v-.867l.385.289h2.7Zm1.156-.022v-.844l1.156-.867v-6.646a1.734,1.734,0,0,0-1.734-1.734h-.384a6.62,6.62,0,0,0-4.393-.15,3.6,3.6,0,0,0-2.736,3.618v.578h1.155v4.335l1.157.867v.842l-4.172,1.049a2.885,2.885,0,0,0-2.186,2.8v1.561a14.427,14.427,0,0,1-1.734-6.865v-7.428l10.981-5.491,10.98,5.491v7.428c0,.066,0,.133,0,.2a9.786,9.786,0,0,0-4.574,2.142Zm9.825,17.072a8.669,8.669,0,1,1,8.669-8.669,8.67,8.67,0,0,1-8.669,8.669Zm0,0" transform="translate(-3860.98 -1540.089)" fill="#5a5a5a"/>
    </g>
    <rect id="Rectangle_5826" data-name="Rectangle 5826" width="6.935" height="1.156" transform="translate(30.053 9.893)" fill="#5a5a5a"/>
    <rect id="Rectangle_5827" data-name="Rectangle 5827" width="4.624" height="1.156" transform="translate(30.053 12.205)" fill="#5a5a5a"/>
    <rect id="Rectangle_5828" data-name="Rectangle 5828" width="2.312" height="1.156" transform="translate(30.053 14.517)" fill="#5a5a5a"/>
    <path id="Path_8482" data-name="Path 8482" d="M4139.3,1829.908l-2.042-2.043-3.27,3.269,5.313,5.313,8.991-8.991-3.271-3.269Zm0,4.9-3.678-3.678,1.635-1.635,2.042,2.043,5.722-5.722,1.634,1.635Zm0,0" transform="translate(-4114.265 -1803.662)" fill="#5a5a5a"/>
  </g>
</svg>
