<svg xmlns="http://www.w3.org/2000/svg" width="28.858" height="36.846" viewBox="0 0 28.858 36.846">
  <g id="Secure_Transaction" transform="translate(0)">
    <g id="Group_3617" data-name="Group 3617" transform="translate(11.104 19.437)">
      <path id="Path_8488" data-name="Path 8488" d="M2426.632,1802.88v1.428a2.625,2.625,0,0,0,.217,5.244h1.285a.91.91,0,1,1,0,1.817h-3.109a.859.859,0,0,0,0,1.719h1.606v1.319a.86.86,0,0,0,1.719,0v-1.328a2.625,2.625,0,0,0-.217-5.244h-1.285a.91.91,0,1,1,0-1.817h3.108a.859.859,0,1,0,0-1.718h-1.606v-1.419a.86.86,0,0,0-1.719,0Zm0,0" transform="translate(-2424.167 -1802.021)" fill="#5a5a5a"/>
    </g>
    <g id="Group_3618" data-name="Group 3618" transform="translate(0 0)">
      <path id="Path_8489" data-name="Path 8489" d="M2296.929,1547.844h-.121v-2.967a11.908,11.908,0,0,0-23.816,0v2.967h-.121a2.4,2.4,0,0,0-2.4,2.4v17.18a2.4,2.4,0,0,0,2.4,2.4h5.193a.72.72,0,0,0,0-1.439h-5.193a.962.962,0,0,1-.961-.961v-3.66h3.461a.72.72,0,0,0,0-1.439h-3.461v-2.771h3.461a.72.72,0,1,0,0-1.439h-3.461v-2.769h3.461a.72.72,0,1,0,0-1.439h-3.461v-3.663a.961.961,0,0,1,.961-.959h24.058a.961.961,0,0,1,.96.959v3.663h-3.463a.72.72,0,1,0,0,1.439h3.463v2.769h-3.463a.72.72,0,1,0,0,1.439h3.463v2.771h-3.463a.72.72,0,0,0,0,1.439h3.463v3.66a.962.962,0,0,1-.96.961h-12.4a.72.72,0,1,0,0,1.439h12.4a2.4,2.4,0,0,0,2.4-2.4v-17.181a2.4,2.4,0,0,0-2.4-2.4Zm-22.5-2.967a10.469,10.469,0,0,1,20.937,0v2.967h-3.313v-2.967a7.155,7.155,0,0,0-14.311,0v2.967h-3.313Zm16.185,2.967h-11.431v-2.967a5.716,5.716,0,0,1,11.431,0Zm0,0" transform="translate(-2270.471 -1532.977)" fill="#5a5a5a"/>
      <path id="Path_8490" data-name="Path 8490" d="M2411.1,2023.077a.72.72,0,0,0,0,1.439h0a.72.72,0,1,0,0-1.439Zm0,0" transform="translate(-2400.269 -1987.67)" fill="#5a5a5a"/>
      <path id="Path_8491" data-name="Path 8491" d="M2514.609,1855.217" transform="translate(-2496.972 -1831.937)" fill="#5a5a5a"/>
    </g>
  </g>
</svg>
