<svg id="Visa_card" xmlns="http://www.w3.org/2000/svg" width="47.948" height="33.002" viewBox="0 0 47.948 33.002">
  <g id="Rectangle_5827" data-name="Rectangle 5827" transform="translate(47.948 0) rotate(90)" fill="#fff" stroke="#c2c2c2" stroke-width="0.5">
    <rect width="33.002" height="47.948" rx="3" stroke="none"/>
    <rect x="0.25" y="0.25" width="32.502" height="47.448" rx="2.75" fill="none"/>
  </g>
  <g id="g4158" transform="translate(4.552 10.621)">
    <path id="polygon9" d="M355.495,17.875h-3.153l1.972-12.2h3.153Z" transform="translate(-338.626 -5.458)" fill="#00579f"/>
    <path id="path11" d="M493.473.519A7.771,7.771,0,0,0,490.644,0c-3.114,0-5.307,1.661-5.32,4.035-.026,1.752,1.57,2.725,2.764,3.309,1.22.6,1.635.986,1.635,1.518-.012.817-.986,1.194-1.894,1.194a6.276,6.276,0,0,1-2.959-.649l-.415-.195-.441,2.738a9.6,9.6,0,0,0,3.517.649c3.309,0,5.463-1.635,5.488-4.165.013-1.388-.83-2.452-2.647-3.321-1.1-.558-1.778-.934-1.778-1.505.013-.519.571-1.051,1.816-1.051a5.358,5.358,0,0,1,2.349.467l.285.13.429-2.634Z" transform="translate(-465.172)" fill="#00579f"/>
    <path id="path13" d="M714.236,13.554c.26-.7,1.259-3.412,1.259-3.412-.013.026.259-.714.415-1.168l.22,1.051s.6,2.919.727,3.529Zm3.893-7.875h-2.439a1.556,1.556,0,0,0-1.648,1.012l-4.684,11.184h3.309l.662-1.829h4.049c.091.428.376,1.829.376,1.829h2.92l-2.544-12.2Z" transform="translate(-681.745 -5.458)" fill="#00579f"/>
    <path id="path15" d="M92.456,5.679,89.367,14l-.337-1.687A9.335,9.335,0,0,0,84.67,7.2L87.5,17.862h3.335L95.79,5.679Z" transform="translate(-81.374 -5.458)" fill="#00579f"/>
    <path id="path17" d="M5.125,5.679H.052L0,5.925a10.552,10.552,0,0,1,7.656,6.384L6.553,6.7A1.3,1.3,0,0,0,5.125,5.679Z" transform="translate(0 -5.458)" fill="#faa61a"/>
  </g>
</svg>
